<?xml version="1.0" encoding="UTF-8"?>
<!-- Created with Inkscape (http://www.inkscape.org/) -->
<svg width="268.22mm" height="14.611mm" version="1.1" viewBox="0 0 268.22 14.611" xmlns="http://www.w3.org/2000/svg">
 <g transform="translate(161.24 -39.969)" display="none">
  <g transform="matrix(.35278 0 0 .35278 -175.63 -71.802)">
   <path d="m0 595.28h841.89v-595.28h-841.89z" fill="#211e1e"/>
   <g fill="#fff">
    <path d="m125.06 322.05-13.977 30.566c-1.5078 3.4219-4.9297 5.625-8.6992 5.625-3.7695 0-7.1914-2.2031-8.6992-5.625l-10.613-23.203-10.559 23.203c-1.5664 3.4219-4.9883 5.625-8.7578 5.625-3.7109 0-7.1328-2.2031-8.6992-5.625l-13.918-30.566c-0.87109-1.8555-0.05859-4.0039 1.7969-4.8711 1.8555-0.8125 4.0586 0 4.8711 1.8555l13.977 30.566c0.35156 0.7539 1.1055 1.2734 1.9727 1.2734 0.87109 0 1.6836-0.51954 2.0312-1.2734l13.922-30.566c0.63672-1.3359 1.9102-2.2031 3.3633-2.2031 1.4492 0 2.7812 0.86718 3.3633 2.2031l13.918 30.566c0.34766 0.7539 1.1602 1.2734 2.0312 1.2734 0.8711 0 1.6797-0.51954 2.0274-1.2734l13.922-30.566c0.8711-1.8555 3.0156-2.668 4.8711-1.8555 1.8555 0.86719 2.668 3.0156 1.8555 4.8711"/>
    <path d="m174.19 354.54c0 2.0859-1.6836 3.7109-3.7148 3.7109h-36.191c-2.0273 0-3.6523-1.625-3.6523-3.7109 0-2.0312 1.625-3.6562 3.6523-3.6562h36.191c2.0312 0 3.7148 1.625 3.7148 3.6562m0-16.996c0 2.0312-1.6836 3.7148-3.7148 3.7148h-36.191c-2.0273 0-3.6523-1.6836-3.6523-3.7148 0-2.0273 1.625-3.6523 3.6523-3.6523h36.191c2.0312 0 3.7148 1.625 3.7148 3.6523m0-16.992c0 2.0312-1.6836 3.6524-3.7148 3.6524h-36.191c-2.0273 0-3.6523-1.6211-3.6523-3.6524s1.625-3.7109 3.6523-3.7109h36.191c2.0312 0 3.7148 1.6797 3.7148 3.7109"/>
    <path d="m224.12 346.07c0 6.7266-5.4531 12.18-12.18 12.18h-25.23c-2.0312 0-3.7109-1.625-3.7109-3.7109 0-2.0312 1.6797-3.6562 3.7109-3.6562h25.23c2.668 0 4.8125-2.1445 4.8125-4.8125 0-2.668-2.1445-4.8125-4.8125-4.8125h-19.199c-6.7266 0-12.18-5.5117-12.18-12.18 0-6.7305 5.4531-12.238 12.18-12.238h25.23c2.0274 0 3.7109 1.6797 3.7109 3.7109s-1.6836 3.6524-3.7109 3.6524h-25.23c-2.668 0-4.8125 2.207-4.8125 4.875 0 2.6094 2.1445 4.8125 4.8125 4.8125h19.199c6.7266 0 12.18 5.4492 12.18 12.18"/>
    <path d="m269.13 354.54c0 2.0859-1.6836 3.7109-3.7148 3.7109h-31.262c-2.0273 0-3.6523-1.625-3.6523-3.7109v-33.988c0-2.0312 1.625-3.7109 3.6523-3.7109 2.0312 0 3.7148 1.6797 3.7148 3.7109v30.332h27.547c2.0312 0 3.7148 1.625 3.7148 3.6562"/>
    <path d="m319.07 354.54c0 2.0859-1.6836 3.7109-3.7148 3.7109h-36.188c-2.0312 0-3.6562-1.625-3.6562-3.7109 0-2.0312 1.625-3.6562 3.6562-3.6562h36.188c2.0312 0 3.7148 1.625 3.7148 3.6562m0-16.996c0 2.0312-1.6836 3.7148-3.7148 3.7148h-36.188c-2.0312 0-3.6562-1.6836-3.6562-3.7148 0-2.0273 1.625-3.6523 3.6562-3.6523h36.188c2.0312 0 3.7148 1.625 3.7148 3.6523m0-16.992c0 2.0312-1.6836 3.6524-3.7148 3.6524h-36.188c-2.0312 0-3.6562-1.6211-3.6562-3.6524s1.625-3.7109 3.6562-3.7109h36.188c2.0312 0 3.7148 1.6797 3.7148 3.7109"/>
    <path d="m366.86 322.23-5.1641 10.27c-1.5664 2.957-3.8281 5.4492-6.7266 7.25-1.8008 1.0977-3.7109 1.8555-5.8008 2.2578v12.531c0 2.0859-1.625 3.7109-3.6523 3.7109-2.0312 0-3.7148-1.625-3.7148-3.7109v-12.531c-2.0274-0.40235-4-1.1602-5.7969-2.2578-2.8438-1.8008-5.1641-4.293-6.6719-7.25l-5.2188-10.27c-0.92969-1.8516-0.17578-4.0586 1.625-4.9844 1.7969-0.92969 4.0586-0.17578 4.9844 1.6211l5.1641 10.266c1.8555 3.6562 5.5664 5.918 9.6289 5.918 4.0586 0 7.7109-2.2617 9.5664-5.918l5.2226-10.266c0.92578-1.7969 3.1328-2.5508 4.9297-1.6211 1.8555 0.92578 2.5508 3.1328 1.625 4.9844"/>
    <path d="m433.5 354.54c0 2.0859-1.6836 3.7109-3.7109 3.7109h-31.262c-2.0312 0-3.6562-1.625-3.6562-3.7109v-33.988c0-2.0312 1.625-3.7109 3.6562-3.7109 2.0273 0 3.7109 1.6797 3.7109 3.7109v30.332h27.551c2.0273 0 3.7109 1.625 3.7109 3.6562"/>
    <path d="m450.91 353.61c0 2.5547-2.0898 4.6406-4.6406 4.6406-2.5508 0-4.6406-2.0859-4.6406-4.6406 0-2.5508 2.0898-4.6406 4.6406-4.6406 2.5508 0 4.6406 2.0898 4.6406 4.6406"/>
    <path d="m523.93 320.55v16.992c0 2.8438-0.46484 5.5117-1.4492 8.0039-1.0469 2.5547-2.4961 4.8164-4.4688 6.6719-4.0586 3.9414-9.8008 6.0312-16.586 6.0312h-2.9609c-6.7266 0-12.469-2.0312-16.527-5.918-1.4492-1.4492-1.5078-3.7695-0.11718-5.2188 1.4531-1.5078 3.7695-1.5078 5.2226-0.11718 2.668 2.5547 6.6094 3.8867 11.422 3.8867h2.9609c9.3359 0 15.137-5.1016 15.137-13.34v-16.992c0-2.0312 1.625-3.7109 3.7109-3.7109 2.0312 0 3.6562 1.6797 3.6562 3.7109"/>
    <path d="m541.32 353.61c0 2.5547-2.0859 4.6406-4.6406 4.6406-2.5508 0-4.6367-2.0859-4.6367-4.6406 0-2.5508 2.0859-4.6406 4.6367-4.6406 2.5547 0 4.6406 2.0898 4.6406 4.6406"/>
    <path d="m627.8 320.55v33.988c0 2.0859-1.6211 3.7109-3.6523 3.7109s-3.7109-1.625-3.7109-3.7109v-25.348l-18.387 17.691c-1.3359 1.332-3.7695 1.332-5.1055 0l-18.383-17.691v25.348c0 2.0859-1.6836 3.7109-3.7148 3.7109-2.0274 0-3.6524-1.625-3.6524-3.7109v-33.988c0-1.5078 0.8711-2.8438 2.2031-3.4219 1.3906-0.58203 2.957-0.28906 4.0039 0.75391l22.094 21.227 22.102-21.227c1.043-1.043 2.6055-1.3359 4-0.75391 1.3359 0.57812 2.2031 1.9141 2.2031 3.4219"/>
    <path d="m665.73 344.91c0 3.6523-2.957 6.6094-6.6133 6.6094-3.6523 0-6.6133-2.957-6.6133-6.6094s2.9609-6.6133 6.6133-6.6133c3.6562 0 6.6133 2.9609 6.6133 6.6133m18.5 8.1172c0.8125 1.8594 0 4.0625-1.8555 4.875-0.46485 0.23047-0.98438 0.34765-1.5078 0.34765-1.3906 0-2.7266-0.8125-3.3633-2.1484l-12.875-28.359c-0.98828-2.1445-3.1914-3.4805-5.5117-3.4805-2.375 0-4.5234 1.3359-5.5078 3.4805l-12.938 28.359c-0.80859 1.8594-3.0117 2.668-4.8711 1.8008-1.8555-0.8125-2.668-3.0156-1.7969-4.875l12.875-28.301c2.2031-4.7539 6.9609-7.8867 12.238-7.8867 5.2188 0 10.035 3.1328 12.18 7.8867z"/>
    <path d="m733.94 320.55v33.988c0 1.5078-0.8711 2.8398-2.2031 3.4219-0.46484 0.17188-0.98828 0.28906-1.4492 0.28906-0.92969 0-1.8594-0.34765-2.5547-0.98437l-29.984-28.191v25.465c0 2.0859-1.625 3.7109-3.6562 3.7109-2.0273 0-3.7109-1.625-3.7109-3.7109v-33.988c0-1.4492 0.8711-2.7852 2.2617-3.3633 1.3359-0.58203 2.9023-0.34765 3.9453 0.69532l29.984 28.129v-25.461c0-2.0312 1.625-3.7109 3.7148-3.7109 2.0274 0 3.6524 1.6797 3.6524 3.7109"/>
    <path d="m749.43 320.55v33.988c0 2.0859-1.6797 3.7109-3.7109 3.7109-2.0273 0-3.6523-1.625-3.6523-3.7109v-33.988c0-2.0312 1.625-3.7109 3.6523-3.7109 2.0312 0 3.7109 1.6797 3.7109 3.7109"/>
    <path d="m801.11 354.54c0 2.0859-1.6836 3.7109-3.7148 3.7109h-36.188c-2.0312 0-3.6562-1.625-3.6562-3.7109 0-2.0312 1.625-3.6562 3.6562-3.6562h36.188c2.0312 0 3.7148 1.625 3.7148 3.6562m0-16.996c0 2.0312-1.6836 3.7148-3.7148 3.7148h-36.188c-2.0312 0-3.6562-1.6836-3.6562-3.7148 0-2.0273 1.625-3.6523 3.6562-3.6523h36.188c2.0312 0 3.7148 1.625 3.7148 3.6523m0-16.992c0 2.0312-1.6836 3.6524-3.7148 3.6524h-36.188c-2.0312 0-3.6562-1.6211-3.6562-3.6524s1.625-3.7109 3.6562-3.7109h36.188c2.0312 0 3.7148 1.6797 3.7148 3.7109"/>
   </g>
  </g>
  <path transform="scale(.26458)" d="m-662.09 124.98v-395.92h1120v791.83h-1120zm278.21 143.56 0.59218-7.1392h16.103c14.92 0 16.103-0.28502 16.103-3.8806 0-3.6951-0.98077-3.8547-20.511-3.339l-20.511 0.54155-0.59739 8.3274c-0.74703 10.413 0.60143 14.075 4.8847 13.263 2.34-0.44347 3.5227-2.7786 3.937-7.7732zm72.368 5.2067c10.053-7.0416 11.164-39.659 1.2202-35.843-1.8224 0.69933-2.6295 4.4604-2.6295 12.253 0 12.53-4.0472 18.876-12.038 18.876-8.6903 0-11.739-4.4054-12.767-18.448-0.72389-9.8904-1.6444-13.035-3.8161-13.035-2.2436 0-2.9812 3.1229-3.4133 14.453-0.51425 13.483-0.20868 14.795 4.5532 19.557 4.2102 4.2102 6.8232 5.1045 14.914 5.1045 5.7154 0 11.548-1.218 13.976-2.9183zm50.108-0.89776c0-3.475-1.272-3.8161-14.233-3.8161h-14.233l-0.55417-15.741c-0.43913-12.474-1.1482-15.741-3.4162-15.741-2.3225 0-2.9645 3.6867-3.4058 19.557l-0.54377 19.557h18.193c16.921 0 18.193-0.26682 18.193-3.8161zm41.023 0c0-2.2293-3.0582-2.986-13.833-3.4226l-13.833-0.5606v-14.977c0-14.922-1.351-17.923-7.1551-15.899-2.5907 0.9037-3.5423 34.973-1.0465 37.469 0.73618 0.73619 9.1077 1.094 18.603 0.79502 13.833-0.43549 17.265-1.1124 17.265-3.4056zm64.246 0.65829c3.7514-3.395 4.5559-11.277 1.625-15.923-1.2292-1.9482-6.2404-3.1667-15.694-3.8161-11.11-0.76316-14.012-1.6056-14.507-4.2106-0.53383-2.8083 1.4336-3.3336 14.292-3.8161 13.453-0.50477 14.911-0.93276 14.911-4.3756 0-3.44-1.4578-3.871-14.794-4.3734-13.61-0.51278-15.175-0.17611-19.557 4.2063-5.7542 5.7542-6.0727 11.26-0.94766 16.385 3.0333 3.0333 6.3601 3.8161 16.218 3.8161 11.13 0 12.402 0.3914 12.402 3.8161 0 3.4742-1.272 3.8161-14.198 3.8161-13.608 0-17.922 1.6058-15.377 5.7241 0.64858 1.0494 8.1445 1.908 16.658 1.908 11.725 0 16.324-0.76569 18.968-3.1578zm28.294-12.106v-15.264h7.692c5.2927 0 8.0576-0.9528 8.8642-3.0546 1.9572-5.1005-3.3115-6.5231-22.28-6.0161-16.693 0.44621-18.126 0.78632-18.126 4.3006 0 3.0324 1.4694 3.9377 7.1551 4.4083l7.1551 0.59218v12.131c0 14.594 1.166 18.167 5.9282 18.167 3.2429 0 3.6119-1.5596 3.6119-15.264zm26.209 0.53523c3.9498-8.101 8.282-15.051 9.6272-15.443 1.4978-0.43755 5.1954 5.2613 9.5402 14.704 4.7686 10.364 8.1522 15.427 10.321 15.443 5.8142 0.0454 5.4547-3.2043-2.1949-19.841-5.7082-12.414-8.7768-16.887-12.576-18.332-8.6051-3.2716-14.312 1.1546-22.188 17.209-8.1529 16.618-8.8817 20.988-3.4998 20.988 2.8335 0 5.6018-3.7166 10.971-14.729zm72.584 11.759c8.5667-6.0004 3.5493-11.924-6.0083-7.0933-14.868 7.5144-30.969-8.8991-17.431-17.769 4.6466-3.0446 9.4694-2.9903 22.433 0.25268 4.3773 1.095 5.2471 0.69658 5.2471-2.4035 0-8.2729-23.022-12.284-32.995-5.7495-10.802 7.0776-10.659 26.898 0.23623 32.815 6.8584 3.7246 23.169 3.6949 28.518-0.0519zm17.597-4.6619c0-7.4515 0.15818-7.6321 6.6831-7.6321 5.3757 0 8.0319 1.493 13.578 7.6321 3.7923 4.1977 8.0325 7.6321 9.4226 7.6321 5.2273 0 4.8705-4.3496-0.95087-11.594-3.3091-4.1177-5.1395-7.4867-4.0675-7.4867 2.8754 0 8.0957-11.076 7.4098-15.721-0.98603-6.6776-5.2201-6.0751-8.2489 1.1739-3.3225 7.9518-7.7028 10.731-16.913 10.731-6.511 0-6.7099-0.22143-7.2806-8.1091-0.41063-5.6754-1.4457-8.1091-3.4488-8.1091-2.3225 0-2.9645 3.6867-3.4058 19.557-0.51647 18.576-0.34885 19.557 3.3391 19.557 3.2579 0 3.8828-1.2283 3.8828-7.6321zm95.548 2.0548c7.6417-7.6417 7.7764-18.622 0.33024-26.927-4.3214-4.8196-7.1527-6.0471-16.049-6.9576-5.9408-0.60811-13.066-0.53717-15.835 0.15761-4.7965 1.2038-5.0064 1.7764-4.4627 12.175 0.49401 9.4492 1.0818 10.911 4.3865 10.911 3.0324 0 3.9377-1.4694 4.4083-7.1551 0.58641-7.0855 0.67331-7.1551 8.9247-7.1551 6.7291 0 9.0934 0.96739 12.287 5.0274 5.0263 6.3899 4.9654 7.4914-0.72881 13.186-3.9293 3.9294-6.5223 4.6834-16.106 4.6834-11.082 0-15.031 1.7935-12.602 5.7241 0.64858 1.0494 7.6342 1.908 15.524 1.908 13.31 0 14.746-0.40208 19.922-5.5773zm51.37 1.7613c0-3.5724-1.272-3.8161-19.922-3.8161-11.223 0-20.437 0.83314-21.101 1.908-2.7217 4.4038 2.1453 5.7241 21.101 5.7241 18.65 0 19.922-0.24366 19.922-3.8161zm37.793-0.92004c5.6426-7.1734 14.37-28.99 13.012-32.528-2.1044-5.4841-5.6113-1.9702-13.519 13.546-4.2414 8.3225-8.5702 15.132-9.6197 15.132s-5.3783-6.8093-9.6197-15.132c-7.8706-15.444-11.415-19.028-13.485-13.634-1.3118 3.4186 7.6771 25.877 13.134 32.814 4.9735 6.3228 15.046 6.2236 20.097-0.19786zm-259.38-4.2778c2.6122-4.6677-0.79874-10.066-6.3601-10.066-2.9343 0-5.019 1.401-5.8146 3.9076-2.4643 7.7644 8.2445 13.182 12.175 6.1588zm221.59-10.066c0-3.5724-1.272-3.8161-19.922-3.8161-11.223 0-20.437 0.83314-21.101 1.908-2.7217 4.4038 2.1453 5.7241 21.101 5.7241 18.65 0 19.922-0.24365 19.922-3.8161zm-487.5-16.218c0-3.5143-1.4335-3.8544-18.126-4.3006-19.054-0.50933-24.24 0.90841-22.255 6.0832 1.0212 2.6612 4.0884 3.0415 20.789 2.5776 18.138-0.50375 19.591-0.82722 19.591-4.3602zm486.55 0c0-3.5143-1.4335-3.8544-18.126-4.3006-19.054-0.50933-24.24 0.90841-22.255 6.0832 1.0212 2.6612 4.0884 3.0415 20.789 2.5776 18.138-0.50375 19.591-0.82722 19.591-4.3602zm-707.92-35.282c3.7475-1.4248 6.8696-6.0116 12.663-18.603l7.689-16.712 7.729 16.59c6.3517 13.634 8.7512 16.946 13.465 18.59 10.36 3.6114 14.389-0.27485 25.598-24.685 11.024-24.009 11.89-29.574 4.6019-29.574-4.046 0-5.8134 2.6702-14.226 21.493-5.2833 11.821-10.468 21.206-11.523 20.855-1.0542-0.35138-5.9882-9.5941-10.964-20.539-13.727-30.191-15.857-30.196-29.178-0.0601-5.1686 11.692-10.273 20.966-11.344 20.61-1.0706-0.35686-6.0181-9.6041-10.994-20.549-9.436-20.754-12.221-24.22-17.759-22.094-4.48 1.7191-3.2137 6.101 9.0419 31.289 6.882 14.144 11.463 21.246 14.752 22.871 5.7642 2.8481 4.4981 2.7848 10.45 0.52212zm139.17 0.73289c3.9124-1.5013 3.9124-9.5386 0-11.04-5.101-1.9574-48.52-1.281-52.44 0.817-4.1366 2.2139-4.9659 8.6404-1.3056 10.117 3.443 1.3893 50.161 1.481 53.746 0.10551zm65.226-5.1864c6.176-7.18 6.1291-17.077-0.11028-23.317-4.2251-4.225-6.2435-4.6834-20.624-4.6834-17.008 0-23.987-2.6352-21.835-8.2448 0.96419-2.5126 4.9324-3.1714 21.775-3.615l20.596-0.54241 1.2075-10.494h-23.11c-21.992 0-23.336 0.22647-27.793 4.6834-6.2477 6.2477-6.2865 16.136-0.0918 23.338 4.3128 5.0139 5.7323 5.397 23.373 6.3075 17.187 0.88706 18.782 1.2935 18.782 4.7855 0 3.4981-1.4309 3.8558-17.172 4.2927-22.945 0.63684-25.758 1.4051-25.758 7.0328 0 2.5161 1.0733 5.0539 2.385 5.6395 1.3118 0.58561 11.704 0.85514 23.093 0.59896 20.032-0.45056 20.858-0.63936 25.281-5.7822zm61.939 4.3694c2.0298-1.0863 3.6906-3.2027 3.6906-4.703 0-4.7958-6.9384-6.6781-24.616-6.6781h-17.235l-0.5395-21.465-0.53949-21.465-10.494-1.2075v27.634c0 20.322 0.6311 27.889 2.385 28.597 4.5588 1.8395 43.681 1.2516 47.349-0.71151zm67.473-1.0232c1.6491-1.6491 2.9983-3.305 2.9983-3.6798 0-0.3748-1.3492-2.0307-2.9983-3.6798-2.4058-2.4058-7.7096-2.9983-26.838-2.9983-23.44 0-31.221 1.5859-31.221 6.3636 0 5.8898 4.7028 6.9926 29.82 6.9926 20.402 0 25.815-0.57478 28.239-2.9983zm40.069 0c1.7365-1.7364 3.0293-6.3538 3.0718-10.971 0.0633-6.8744 0.91774-8.4986 6.2011-11.789 7.1053-4.425 17.909-23.468 16.055-28.3-2.3238-6.0556-8.6614-3.649-12.973 4.9262-5.9272 11.789-9.1786 14.787-16.035 14.787s-10.107-2.9984-16.035-14.787c-4.3115-8.5752-10.649-10.982-12.973-4.9262-1.854 4.8314 8.9496 23.875 16.055 28.3 5.2834 3.2903 6.1377 4.9145 6.2011 11.789 0.0611 6.6237 3.6114 13.97 6.7516 13.97 0.37479 0 2.0307-1.3492 3.6798-2.9983zm110.65 1.8402c1.66-0.63697 3.0181-3.121 3.0181-5.52 0-5.8126-2.9876-6.6781-23.052-6.6781h-17.016v-18.924c0-22.167-0.77019-24.96-6.8822-24.96h-4.5659v27.507c0 20.221 0.63181 27.762 2.385 28.47 3.444 1.3897 42.534 1.4791 46.114 0.10551zm24.824-1.8402c3.5472-3.5472 3.5776-3.8022 1.0232-8.5753-1.0863-2.0298-3.4905-3.6906-5.3425-3.6906-7.4609 0-10.808 9.5919-4.6076 13.203 4.5246 2.6353 5.4514 2.538 8.9269-0.93747zm77.245 0.94774c17.516-3.7565 24.116-16.191 22.713-42.788-0.5676-10.756-0.90679-11.483-5.6128-12.029l-5.0087-0.58075-0.83896 17.548c-0.77766 16.265-1.2211 17.876-6.0688 22.046-6.3159 5.4327-21.06 6.167-30.088 1.4985-6.7486-3.4898-11.181-2.4415-11.181 2.6445 0 5.0861 6.4474 10.266 14.793 11.886 10.417 2.0215 10.841 2.017 21.293-0.22452zm42.269 0.0754c6.5566-3.5089 3.4244-13.289-4.256-13.289-2.838 0-7.3176 5.0959-7.3176 8.3244 0 1.2268 5.713 6.9398 6.9398 6.9398 0.51874 0 2.6039-0.88882 4.6338-1.9752zm51.01-0.31441c1.4184-1.4184 2.2896-8.4047 2.2896-18.359v-16.07l12.218 10.727c6.7201 5.9 13.443 10.727 14.939 10.727 1.4964 0 8.0187-4.7944 14.494-10.654l11.773-10.654v16.145c0 16.882 2.0848 21.705 8.3443 19.303 2.6676-1.0236 3.1039-5.0516 3.1039-28.653 0-26.924-0.0813-27.462-4.1486-27.462-2.5525 0-9.448 5.1385-17.923 13.356-7.5759 7.3459-14.564 13.356-15.528 13.356-0.96459 0-8.3465-6.0748-16.404-13.499-20.666-19.042-21.234-18.671-21.896 14.33-0.40071 19.953 0.07289 26.926 1.908 28.091 3.2835 2.0837 4.1502 1.9971 6.8295-0.68218zm93.599-20.591c8.9827-19.715 12.681-24.417 17.694-22.493 1.4701 0.56411 6.877 10.536 12.016 22.16 9.423 21.316 12.663 25.165 17.677 21.004 3.5819-2.9727 2.5842-6.4778-8.7566-30.765-9.8496-21.093-12.921-24.266-23.494-24.266-9.9575 0-14.737 4.9027-23.905 24.522-12.167 26.036-12.273 26.393-8.8617 29.804 4.7781 4.7781 8.039 1.0852 17.631-19.966zm64.039 21.723c2.4626-0.94497 3.0181-4.5353 3.0181-19.506v-18.348l12.879 12.464c21.219 20.535 28.789 26.547 31.917 25.346 2.4147-0.92664 2.9047-5.7469 2.9047-28.577v-27.462h-4.7337c-5.5951 0-6.4847 2.7176-7.1832 21.942l-0.48527 13.356-18.868-17.747c-26.107-24.556-26.762-24.344-27.458 8.8971-0.35957 17.171 0.18393 26.359 1.6646 28.143 2.5328 3.0518 2.3746 3.0146 6.3453 1.4909zm69.378-0.4493c1.8352-1.1646 2.3088-8.1419 1.908-28.114l-0.53299-26.565h-9.5402l-0.53386 25.494c-0.59273 28.305 1.1057 34.004 8.699 29.185zm68 0.4493c3.9124-1.5013 3.9124-9.5386 0-11.04-5.101-1.9574-48.52-1.281-52.44 0.817-4.2054 2.2507-4.7444 5.7481-1.401 9.0914 2.409 2.409 48.014 3.3674 53.841 1.1315zm-179.15-12.256c5.0246-5.5521 1.9218-14.017-5.4499-14.867-6.8103-0.78603-10.821 2.5693-10.821 9.053 0 9.7077 9.6321 13.15 16.271 5.8143zm-653.9-15.734 0.60861-5.2975-29.205 0.52742c-26.839 0.4847-29.261 0.81801-29.894 4.1148-0.37885 1.9731 0.46894 4.334 1.884 5.2466 1.415 0.91253 14.593 1.4447 29.285 1.1826l26.712-0.47649zm192.73 2.9125c3.7901-7.3691 1.1879-8.1091-28.514-8.1091-23.699 0-28.709 0.48803-29.629 2.8863-0.60918 1.5875-0.0477 4.1634 1.2475 5.7241 1.8769 2.2616 7.718 2.8378 28.767 2.8378 23.228 0 26.619-0.40252 28.129-3.3391zm642.99-2.9125 0.6086-5.2975-29.205 0.52742c-26.839 0.4847-29.261 0.81801-29.894 4.1148-0.37884 1.9731 0.46893 4.334 1.884 5.2466 1.415 0.91253 14.593 1.4447 29.285 1.1826l26.712-0.47649zm-836.33-22.369v-4.7701l-28.184-0.52824c-23.842-0.44688-28.356-0.0794-29.302 2.385-0.61486 1.6023-0.61486 4.2242 0 5.8266 0.94571 2.4645 5.4598 2.8319 29.302 2.385l28.184-0.52824zm193.34 2.385c3.7901-7.3691 1.1879-8.1091-28.514-8.1091-23.699 0-28.709 0.48804-29.629 2.8863-0.60918 1.5875-0.0477 4.1633 1.2475 5.7241 1.8769 2.2616 7.718 2.8378 28.767 2.8378 23.228 0 26.619-0.40251 28.129-3.339zm642.98-2.862 0.60374-5.2471h-28.807c-30.116 0-32.892 0.80229-29.886 8.6374 0.94572 2.4645 5.4599 2.8319 29.302 2.385l28.184-0.52824zm-668.51-49.924c10.625-4.4396 11.443-7.6947 12.494-49.77 0.90534-36.213 1.1435-38.161 4.6683-38.161 3.0754 0 6.2701 6.7168 18.572 39.046 17.108 44.96 20.387 49.706 35.255 51.02 6.6896 0.59147 11.209-0.21126 16.373-2.908 6.3906-3.3374 7.8794-3.4585 14.31-1.1638 4.6264 1.6509 16.502 2.591 33.413 2.6449l26.235 0.0837v-20.988h-25.652c-24.359 0-25.922-0.23192-31.006-4.6012l-5.3535-4.6012-1.1723-78.567h-20.7l-0.51217 44.362c-0.48285 41.822-0.71572 44.362-4.0675 44.362-2.8611 0-6.4185-7.4512-18.219-38.161-8.065-20.988-15.902-40.093-17.415-42.454-8.1129-12.658-32.926-13.146-41.299-0.8107-2.9697 4.3748-3.6013 10.559-4.419 43.265-0.90232 36.093-1.1535 38.161-4.6352 38.161-3.0615 0-6.434-7.4645-20.034-44.342l-16.353-44.342-10.971-0.019271c-6.0342-0.011448-10.971 0.38903-10.971 0.88807 0 2.4736 35.044 94.135 37.724 98.673 5.9836 10.129 20.766 13.804 33.734 8.3848zm319.67-0.15074c10.885-5.629 11.469-8.0229 11.469-47.026 0-19.62 0.52116-37.03 1.1582-38.69 0.63698-1.66 2.6543-3.0181 4.483-3.0181 2.5794 0 6.4424 8.4482 17.231 37.684 21.642 58.647 17.828 51.994 29.806 51.994 6.4181 0 10.287-0.8167 10.287-2.1715 0-2.7356-31.911-88.496-35.609-95.7-5.8191-11.334-22.89-16.189-34.967-9.9437-10.885 5.6291-11.469 8.023-11.469 47.026 0 19.62-0.52116 37.03-1.1582 38.69-0.63698 1.66-2.6579 3.0181-4.4909 3.0181-2.583 0-6.7044-8.9066-18.32-39.592-9.9476-26.278-16.682-41.309-20.026-44.698-9.1454-9.2689-27.795-9.4958-36.313-0.44182-4.4221 4.7-4.6348 6.2033-5.5522 39.253l-0.95402 34.366-5.3535 4.6028c-5.0122 4.3093-6.8066 4.6028-28.143 4.6028h-22.79v20.988l22.419-0.0114c25.539-0.0114 34.079-1.8214 42.654-9.0367 9.8979-8.3285 11.248-14.113 11.248-48.192 0-26.154 0.44154-30.819 3.01-31.805 1.6555-0.63528 4.0942 0.03568 5.4193 1.4909 1.3251 1.4553 8.2166 18.101 15.314 36.991 7.0978 18.89 14.146 36.744 15.662 39.676 5.8643 11.342 22.913 16.187 34.987 9.9437z" fill="#f00" stroke-width="1.908"/>
 </g>
 <g transform="translate(161.24 -39.969)" fill="#fff">
  <path transform="matrix(.35278 0 0 .35278 -175.63 -71.802)" d="m125.06 322.05-13.977 30.566c-1.5078 3.4219-4.9297 5.625-8.6992 5.625-3.7695 0-7.1914-2.2031-8.6992-5.625l-10.613-23.203-10.559 23.203c-1.5664 3.4219-4.9883 5.625-8.7578 5.625-3.7109 0-7.1328-2.2031-8.6992-5.625l-13.918-30.566c-0.87109-1.8555-0.05859-4.0039 1.7969-4.8711 1.8555-0.8125 4.0586 0 4.8711 1.8555l13.977 30.566c0.35156 0.7539 1.1055 1.2734 1.9727 1.2734 0.87109 0 1.6836-0.51954 2.0312-1.2734l13.922-30.566c0.63672-1.3359 1.9102-2.2031 3.3633-2.2031 1.4492 0 2.7812 0.86718 3.3633 2.2031l13.918 30.566c0.34766 0.7539 1.1602 1.2734 2.0312 1.2734 0.8711 0 1.6797-0.51954 2.0274-1.2734l13.922-30.566c0.8711-1.8555 3.0156-2.668 4.8711-1.8555 1.8555 0.86719 2.668 3.0156 1.8555 4.8711"/>
  <path transform="matrix(.35278 0 0 .35278 -175.63 -71.802)" d="m174.19 354.54c0 2.0859-1.6836 3.7109-3.7148 3.7109h-36.191c-2.0273 0-3.6523-1.625-3.6523-3.7109 0-2.0312 1.625-3.6562 3.6523-3.6562h36.191c2.0312 0 3.7148 1.625 3.7148 3.6562m0-16.996c0 2.0312-1.6836 3.7148-3.7148 3.7148h-36.191c-2.0273 0-3.6523-1.6836-3.6523-3.7148 0-2.0273 1.625-3.6523 3.6523-3.6523h36.191c2.0312 0 3.7148 1.625 3.7148 3.6523m0-16.992c0 2.0312-1.6836 3.6524-3.7148 3.6524h-36.191c-2.0273 0-3.6523-1.6211-3.6523-3.6524s1.625-3.7109 3.6523-3.7109h36.191c2.0312 0 3.7148 1.6797 3.7148 3.7109"/>
  <path transform="matrix(.35278 0 0 .35278 -175.63 -71.802)" d="m224.12 346.07c0 6.7266-5.4531 12.18-12.18 12.18h-25.23c-2.0312 0-3.7109-1.625-3.7109-3.7109 0-2.0312 1.6797-3.6562 3.7109-3.6562h25.23c2.668 0 4.8125-2.1445 4.8125-4.8125 0-2.668-2.1445-4.8125-4.8125-4.8125h-19.199c-6.7266 0-12.18-5.5117-12.18-12.18 0-6.7305 5.4531-12.238 12.18-12.238h25.23c2.0274 0 3.7109 1.6797 3.7109 3.7109s-1.6836 3.6524-3.7109 3.6524h-25.23c-2.668 0-4.8125 2.207-4.8125 4.875 0 2.6094 2.1445 4.8125 4.8125 4.8125h19.199c6.7266 0 12.18 5.4492 12.18 12.18"/>
  <path transform="matrix(.35278 0 0 .35278 -175.63 -71.802)" d="m269.13 354.54c0 2.0859-1.6836 3.7109-3.7148 3.7109h-31.262c-2.0273 0-3.6523-1.625-3.6523-3.7109v-33.988c0-2.0312 1.625-3.7109 3.6523-3.7109 2.0312 0 3.7148 1.6797 3.7148 3.7109v30.332h27.547c2.0312 0 3.7148 1.625 3.7148 3.6562"/>
  <path transform="matrix(.35278 0 0 .35278 -175.63 -71.802)" d="m319.07 354.54c0 2.0859-1.6836 3.7109-3.7148 3.7109h-36.188c-2.0312 0-3.6562-1.625-3.6562-3.7109 0-2.0312 1.625-3.6562 3.6562-3.6562h36.188c2.0312 0 3.7148 1.625 3.7148 3.6562m0-16.996c0 2.0312-1.6836 3.7148-3.7148 3.7148h-36.188c-2.0312 0-3.6562-1.6836-3.6562-3.7148 0-2.0273 1.625-3.6523 3.6562-3.6523h36.188c2.0312 0 3.7148 1.625 3.7148 3.6523m0-16.992c0 2.0312-1.6836 3.6524-3.7148 3.6524h-36.188c-2.0312 0-3.6562-1.6211-3.6562-3.6524s1.625-3.7109 3.6562-3.7109h36.188c2.0312 0 3.7148 1.6797 3.7148 3.7109"/>
  <path transform="matrix(.35278 0 0 .35278 -175.63 -71.802)" d="m366.86 322.23-5.1641 10.27c-1.5664 2.957-3.8281 5.4492-6.7266 7.25-1.8008 1.0977-3.7109 1.8555-5.8008 2.2578v12.531c0 2.0859-1.625 3.7109-3.6523 3.7109-2.0312 0-3.7148-1.625-3.7148-3.7109v-12.531c-2.0274-0.40235-4-1.1602-5.7969-2.2578-2.8438-1.8008-5.1641-4.293-6.6719-7.25l-5.2188-10.27c-0.92969-1.8516-0.17578-4.0586 1.625-4.9844 1.7969-0.92969 4.0586-0.17578 4.9844 1.6211l5.1641 10.266c1.8555 3.6562 5.5664 5.918 9.6289 5.918 4.0586 0 7.7109-2.2617 9.5664-5.918l5.2226-10.266c0.92578-1.7969 3.1328-2.5508 4.9297-1.6211 1.8555 0.92578 2.5508 3.1328 1.625 4.9844"/>
  <path transform="matrix(.35278 0 0 .35278 -175.63 -71.802)" d="m433.5 354.54c0 2.0859-1.6836 3.7109-3.7109 3.7109h-31.262c-2.0312 0-3.6562-1.625-3.6562-3.7109v-33.988c0-2.0312 1.625-3.7109 3.6562-3.7109 2.0273 0 3.7109 1.6797 3.7109 3.7109v30.332h27.551c2.0273 0 3.7109 1.625 3.7109 3.6562"/>
  <path transform="matrix(.35278 0 0 .35278 -175.63 -71.802)" d="m450.91 353.61c0 2.5547-2.0898 4.6406-4.6406 4.6406-2.5508 0-4.6406-2.0859-4.6406-4.6406 0-2.5508 2.0898-4.6406 4.6406-4.6406 2.5508 0 4.6406 2.0898 4.6406 4.6406"/>
  <path transform="matrix(.35278 0 0 .35278 -175.63 -71.802)" d="m523.93 320.55v16.992c0 2.8438-0.46484 5.5117-1.4492 8.0039-1.0469 2.5547-2.4961 4.8164-4.4688 6.6719-4.0586 3.9414-9.8008 6.0312-16.586 6.0312h-2.9609c-6.7266 0-12.469-2.0312-16.527-5.918-1.4492-1.4492-1.5078-3.7695-0.11718-5.2188 1.4531-1.5078 3.7695-1.5078 5.2226-0.11718 2.668 2.5547 6.6094 3.8867 11.422 3.8867h2.9609c9.3359 0 15.137-5.1016 15.137-13.34v-16.992c0-2.0312 1.625-3.7109 3.7109-3.7109 2.0312 0 3.6562 1.6797 3.6562 3.7109"/>
  <path transform="matrix(.35278 0 0 .35278 -175.63 -71.802)" d="m541.32 353.61c0 2.5547-2.0859 4.6406-4.6406 4.6406-2.5508 0-4.6367-2.0859-4.6367-4.6406 0-2.5508 2.0859-4.6406 4.6367-4.6406 2.5547 0 4.6406 2.0898 4.6406 4.6406"/>
  <path transform="matrix(.35278 0 0 .35278 -175.63 -71.802)" d="m627.8 320.55v33.988c0 2.0859-1.6211 3.7109-3.6523 3.7109s-3.7109-1.625-3.7109-3.7109v-25.348l-18.387 17.691c-1.3359 1.332-3.7695 1.332-5.1055 0l-18.383-17.691v25.348c0 2.0859-1.6836 3.7109-3.7148 3.7109-2.0274 0-3.6524-1.625-3.6524-3.7109v-33.988c0-1.5078 0.8711-2.8438 2.2031-3.4219 1.3906-0.58203 2.957-0.28906 4.0039 0.75391l22.094 21.227 22.102-21.227c1.043-1.043 2.6055-1.3359 4-0.75391 1.3359 0.57812 2.2031 1.9141 2.2031 3.4219"/>
  <path transform="matrix(.35278 0 0 .35278 -175.63 -71.802)" d="m665.73 344.91c0 3.6523-2.957 6.6094-6.6133 6.6094-3.6523 0-6.6133-2.957-6.6133-6.6094s2.9609-6.6133 6.6133-6.6133c3.6562 0 6.6133 2.9609 6.6133 6.6133m18.5 8.1172c0.8125 1.8594 0 4.0625-1.8555 4.875-0.46485 0.23047-0.98438 0.34765-1.5078 0.34765-1.3906 0-2.7266-0.8125-3.3633-2.1484l-12.875-28.359c-0.98828-2.1445-3.1914-3.4805-5.5117-3.4805-2.375 0-4.5234 1.3359-5.5078 3.4805l-12.938 28.359c-0.80859 1.8594-3.0117 2.668-4.8711 1.8008-1.8555-0.8125-2.668-3.0156-1.7969-4.875l12.875-28.301c2.2031-4.7539 6.9609-7.8867 12.238-7.8867 5.2188 0 10.035 3.1328 12.18 7.8867z"/>
  <path transform="matrix(.35278 0 0 .35278 -175.63 -71.802)" d="m733.94 320.55v33.988c0 1.5078-0.8711 2.8398-2.2031 3.4219-0.46484 0.17188-0.98828 0.28906-1.4492 0.28906-0.92969 0-1.8594-0.34765-2.5547-0.98437l-29.984-28.191v25.465c0 2.0859-1.625 3.7109-3.6562 3.7109-2.0273 0-3.7109-1.625-3.7109-3.7109v-33.988c0-1.4492 0.8711-2.7852 2.2617-3.3633 1.3359-0.58203 2.9023-0.34765 3.9453 0.69532l29.984 28.129v-25.461c0-2.0312 1.625-3.7109 3.7148-3.7109 2.0274 0 3.6524 1.6797 3.6524 3.7109"/>
  <path transform="matrix(.35278 0 0 .35278 -175.63 -71.802)" d="m749.43 320.55v33.988c0 2.0859-1.6797 3.7109-3.7109 3.7109-2.0273 0-3.6523-1.625-3.6523-3.7109v-33.988c0-2.0312 1.625-3.7109 3.6523-3.7109 2.0312 0 3.7109 1.6797 3.7109 3.7109"/>
  <path transform="matrix(.35278 0 0 .35278 -175.63 -71.802)" d="m801.11 354.54c0 2.0859-1.6836 3.7109-3.7148 3.7109h-36.188c-2.0312 0-3.6562-1.625-3.6562-3.7109 0-2.0312 1.625-3.6562 3.6562-3.6562h36.188c2.0312 0 3.7148 1.625 3.7148 3.6562m0-16.996c0 2.0312-1.6836 3.7148-3.7148 3.7148h-36.188c-2.0312 0-3.6562-1.6836-3.6562-3.7148 0-2.0273 1.625-3.6523 3.6562-3.6523h36.188c2.0312 0 3.7148 1.625 3.7148 3.6523m0-16.992c0 2.0312-1.6836 3.6524-3.7148 3.6524h-36.188c-2.0312 0-3.6562-1.6211-3.6562-3.6524s1.625-3.7109 3.6562-3.7109h36.188c2.0312 0 3.7148 1.6797 3.7148 3.7109"/>
 </g>
</svg>
