<?xml version="1.0" encoding="UTF-8" standalone="no"?>
<!-- Created with Inkscape (http://www.inkscape.org/) -->

<svg
   width="122.89344mm"
   height="29.202007mm"
   viewBox="0 0 122.89344 29.202007"
   version="1.1"
   id="svg5"
   inkscape:version="1.1 (c68e22c387, 2021-05-23)"
   sodipodi:docname="WLJM - WHITE - temp.svg"
   xmlns:inkscape="http://www.inkscape.org/namespaces/inkscape"
   xmlns:sodipodi="http://sodipodi.sourceforge.net/DTD/sodipodi-0.dtd"
   xmlns:xlink="http://www.w3.org/1999/xlink"
   xmlns="http://www.w3.org/2000/svg"
   xmlns:svg="http://www.w3.org/2000/svg">
  <sodipodi:namedview
     id="namedview7"
     pagecolor="#ffffff"
     bordercolor="#666666"
     borderopacity="1.0"
     inkscape:pageshadow="2"
     inkscape:pageopacity="0.0"
     inkscape:pagecheckerboard="true"
     inkscape:document-units="mm"
     showgrid="false"
     fit-margin-top="0"
     fit-margin-left="0"
     fit-margin-right="0"
     fit-margin-bottom="0"
     inkscape:zoom="0.74118967"
     inkscape:cx="203.05194"
     inkscape:cy="62.736978"
     inkscape:window-width="1920"
     inkscape:window-height="1017"
     inkscape:window-x="-8"
     inkscape:window-y="-8"
     inkscape:window-maximized="1"
     inkscape:current-layer="g1667" />
  <defs
     id="defs2">
    <clipPath
       clipPathUnits="userSpaceOnUse"
       id="clipPath5012">
      <use
         x="0"
         y="0"
         xlink:href="#g5008"
         id="use5014"
         width="100%"
         height="100%" />
    </clipPath>
  </defs>
  <g
     inkscape:label="Layer 1"
     inkscape:groupmode="layer"
     id="layer1"
     style="display:none"
     transform="translate(80.723161,-50.333738)">
    <g
       id="surface44127"
       transform="matrix(0.35277778,0,0,0.35277778,-167.77659,-20.755117)">
      <path
         style="fill:#211e1e;fill-opacity:1;fill-rule:nonzero;stroke:none"
         d="M 0,595.27734 H 841.89062 V 0 H 0 Z m 0,0"
         id="path824" />
      <path
         style="fill:#ffffff;fill-opacity:1;fill-rule:nonzero;stroke:none"
         d="m 381.46875,267.82812 c -2.09375,-0.71093 -3.77344,-1.67578 -5.03516,-2.90234 -1.26172,-1.22266 -2.15234,-2.67969 -2.66406,-4.38281 C 373.25781,258.84766 373,257.05078 373,255.15625 v -52.22266 h -14.44531 v 63.23828 c 0,1.33985 -0.375,2.42579 -1.125,3.25391 -0.75,0.82813 -1.71875,1.24609 -2.90235,1.24609 -2.13281,0 -3.59375,-1.10546 -4.38281,-3.3164 l -19.41797,-51.03906 c -1.58203,-4.57813 -3.78906,-8.19141 -6.63281,-10.83594 -2.84375,-2.64453 -6.94922,-3.96875 -12.31641,-3.96875 -5.92187,0 -10.34375,1.60156 -13.26172,4.79687 -2.92187,3.19922 -4.38281,7.40235 -4.38281,12.61328 v 47.25 c 0,1.33985 -0.39453,2.42579 -1.18359,3.25391 -0.78906,0.82813 -1.77735,1.24609 -2.96094,1.24609 -1.10547,0 -2.01172,-0.29687 -2.72266,-0.89062 -0.71093,-0.58984 -1.26562,-1.40234 -1.65625,-2.42578 L 261.6875,202.93359 h -14.92188 l 24.75,66.55078 c 1.57813,4.58204 3.76954,8.19141 6.57032,10.83594 2.80468,2.64453 6.89062,3.96875 12.25781,3.96875 5.92187,0 10.36328,-1.60156 13.32422,-4.79687 2.95703,-3.19532 4.4375,-7.44141 4.4375,-12.73047 v -47.13281 c 0,-1.41797 0.375,-2.54297 1.125,-3.3711 0.75,-0.83203 1.71875,-1.24219 2.90234,-1.24219 1.10547,0 2.03125,0.3125 2.78125,0.94532 0.75,0.63281 1.32422,1.46093 1.71875,2.48828 l 19.42188,51.03515 c 1.57812,4.58204 3.76953,8.19141 6.57031,10.83594 2.80469,2.64453 6.89062,3.96875 12.25781,3.96875 5.92188,0 10.35938,-1.60156 13.32031,-4.79687 0.4375,-0.46875 0.82813,-0.96875 1.19922,-1.48438 1.64844,1.08594 3.48438,2.02735 5.55078,2.78906 3.75,1.37891 8.26954,2.07032 13.5625,2.07032 h 31.85157 v -13.97266 h -31.02344 c -3.16016,0 -5.78516,-0.35547 -7.875,-1.06641"
         id="path826" />
      <path
         style="fill:#ffffff;fill-opacity:1;fill-rule:nonzero;stroke:none"
         d="m 570.37109,216.3125 c -1.58593,-4.57031 -3.76562,-8.19141 -6.57422,-10.82422 -2.79687,-2.64844 -6.88671,-3.97656 -12.25,-3.97656 -5.92968,0 -10.37109,1.60156 -13.32812,4.80078 -2.95703,3.19922 -4.44531,7.39844 -4.44531,12.60156 v 47.26172 c 0,1.33984 -0.3711,2.42188 -1.11328,3.24609 -0.76172,0.83985 -1.73047,1.2461 -2.91016,1.2461 -2.21484,0 -3.71484,-1.09766 -4.49219,-3.3125 L 505.83984,216.3125 c -1.58593,-4.57031 -3.78125,-8.19141 -6.57812,-10.82422 -2.8125,-2.64844 -6.88281,-3.97656 -12.26172,-3.97656 -3.21875,0 -5.99609,0.46875 -8.33984,1.42187 -1.97266,0.79297 -3.63672,1.92578 -4.97657,3.37891 -2.5039,2.69922 -3.9414,6.12109 -4.32812,10.24219 -0.082,0.76172 -0.11328,1.55078 -0.11328,2.35937 v 38.26172 c -0.11328,1.16406 -0.33985,2.29297 -0.66407,3.375 -0.51562,1.69922 -1.40625,3.15234 -2.66406,4.37891 -1.26172,1.23047 -2.9414,2.18359 -5.02734,2.89453 -2.10156,0.71094 -4.71485,1.0664 -7.86719,1.0664 h -26.30469 v 13.97657 h 27.12891 c 5.28516,0 9.80469,-0.69532 13.55469,-2.07032 0.6289,-0.24218 1.26172,-0.48437 1.84375,-0.75781 2.92578,-1.29297 5.36328,-2.95703 7.33593,-4.99219 2.375,-2.4414 4.10157,-5.34765 5.19922,-8.69531 0.82422,-2.47265 1.32813,-5.10547 1.55469,-7.94922 0.0781,-1.01562 0.10938,-2.0664 0.10938,-3.13281 v -36.87109 c 0.16406,-0.85547 0.5039,-1.56641 1.01953,-2.13282 0.74609,-0.83984 1.71484,-1.24218 2.89062,-1.24218 1.03516,0 1.92578,0.30468 2.66797,0.93359 0.75781,0.63281 1.32422,1.47266 1.71094,2.48828 l 19.42187,51.04297 c 1.58594,4.57031 3.79688,8.19141 6.64063,10.82422 2.84375,2.64844 6.94922,3.97656 12.3125,3.97656 5.92969,0 10.33984,-1.60156 13.26562,-4.80078 2.92578,-3.19922 4.37891,-7.43359 4.37891,-12.73047 V 219.625 c 0,-1.42188 0.40234,-2.53516 1.17969,-3.35938 0.79297,-0.83984 1.77734,-1.24218 2.97265,-1.24218 1.09766,0 2.00391,0.30468 2.71485,0.93359 0.71093,0.63281 1.26172,1.47266 1.66406,2.48828 l 23.91406,64.42188 H 595.125 Z m 0,0"
         id="path828" />
      <path
         style="fill:#ffffff;fill-opacity:1;fill-rule:nonzero;stroke:none"
         d="m 125.05859,322.05469 -13.97656,30.5664 c -1.50781,3.42188 -4.92969,5.625 -8.69922,5.625 -3.769529,0 -7.191404,-2.20312 -8.699216,-5.625 L 83.070312,329.41797 72.511719,352.62109 c -1.566407,3.42188 -4.988281,5.625 -8.757813,5.625 -3.710937,0 -7.132812,-2.20312 -8.699218,-5.625 l -13.917969,-30.5664 c -0.871094,-1.85547 -0.05859,-4.00391 1.796875,-4.8711 1.855468,-0.8125 4.058594,0 4.871094,1.85547 l 13.976562,30.56641 c 0.351562,0.7539 1.105469,1.27344 1.972656,1.27344 0.871094,0 1.683594,-0.51954 2.03125,-1.27344 l 13.921875,-30.56641 c 0.636719,-1.33594 1.910157,-2.20312 3.363281,-2.20312 1.449219,0 2.78125,0.86718 3.363282,2.20312 l 13.917966,30.56641 c 0.34766,0.7539 1.16016,1.27344 2.03125,1.27344 0.8711,0 1.67969,-0.51954 2.02735,-1.27344 l 13.92187,-30.56641 c 0.8711,-1.85547 3.01563,-2.66797 4.8711,-1.85547 1.85546,0.86719 2.66796,3.01563 1.85546,4.8711"
         id="path830" />
      <path
         style="fill:#ffffff;fill-opacity:1;fill-rule:nonzero;stroke:none"
         d="m 174.1875,354.53516 c 0,2.08593 -1.68359,3.71093 -3.71484,3.71093 h -36.19141 c -2.02734,0 -3.65234,-1.625 -3.65234,-3.71093 0,-2.03125 1.625,-3.65625 3.65234,-3.65625 h 36.19141 c 2.03125,0 3.71484,1.625 3.71484,3.65625 m 0,-16.9961 c 0,2.03125 -1.68359,3.71485 -3.71484,3.71485 h -36.19141 c -2.02734,0 -3.65234,-1.6836 -3.65234,-3.71485 0,-2.02734 1.625,-3.65234 3.65234,-3.65234 h 36.19141 c 2.03125,0 3.71484,1.625 3.71484,3.65234 m 0,-16.99219 c 0,2.03125 -1.68359,3.65235 -3.71484,3.65235 h -36.19141 c -2.02734,0 -3.65234,-1.6211 -3.65234,-3.65235 0,-2.03125 1.625,-3.71093 3.65234,-3.71093 h 36.19141 c 2.03125,0 3.71484,1.67968 3.71484,3.71093"
         id="path832" />
      <path
         style="fill:#ffffff;fill-opacity:1;fill-rule:nonzero;stroke:none"
         d="m 224.125,346.06641 c 0,6.72656 -5.45313,12.17968 -12.17969,12.17968 h -25.23047 c -2.03125,0 -3.71093,-1.625 -3.71093,-3.71093 0,-2.03125 1.67968,-3.65625 3.71093,-3.65625 h 25.23047 c 2.66797,0 4.8125,-2.14454 4.8125,-4.8125 0,-2.66797 -2.14453,-4.8125 -4.8125,-4.8125 h -19.19922 c -6.72656,0 -12.17968,-5.51172 -12.17968,-12.17969 0,-6.73047 5.45312,-12.23828 12.17968,-12.23828 h 25.23047 c 2.02735,0 3.71094,1.67968 3.71094,3.71093 0,2.03125 -1.68359,3.65235 -3.71094,3.65235 h -25.23047 c -2.66797,0 -4.8125,2.20703 -4.8125,4.875 0,2.60937 2.14453,4.8125 4.8125,4.8125 h 19.19922 c 6.72656,0 12.17969,5.44922 12.17969,12.17969"
         id="path834" />
      <path
         style="fill:#ffffff;fill-opacity:1;fill-rule:nonzero;stroke:none"
         d="m 269.13281,354.53516 c 0,2.08593 -1.68359,3.71093 -3.71484,3.71093 h -31.26172 c -2.02734,0 -3.65234,-1.625 -3.65234,-3.71093 v -33.98829 c 0,-2.03125 1.625,-3.71093 3.65234,-3.71093 2.03125,0 3.71484,1.67968 3.71484,3.71093 v 30.33204 h 27.54688 c 2.03125,0 3.71484,1.625 3.71484,3.65625"
         id="path836" />
      <path
         style="fill:#ffffff;fill-opacity:1;fill-rule:nonzero;stroke:none"
         d="m 319.07031,354.53516 c 0,2.08593 -1.68359,3.71093 -3.71484,3.71093 h -36.1875 c -2.03125,0 -3.65625,-1.625 -3.65625,-3.71093 0,-2.03125 1.625,-3.65625 3.65625,-3.65625 h 36.1875 c 2.03125,0 3.71484,1.625 3.71484,3.65625 m 0,-16.9961 c 0,2.03125 -1.68359,3.71485 -3.71484,3.71485 h -36.1875 c -2.03125,0 -3.65625,-1.6836 -3.65625,-3.71485 0,-2.02734 1.625,-3.65234 3.65625,-3.65234 h 36.1875 c 2.03125,0 3.71484,1.625 3.71484,3.65234 m 0,-16.99219 c 0,2.03125 -1.68359,3.65235 -3.71484,3.65235 h -36.1875 c -2.03125,0 -3.65625,-1.6211 -3.65625,-3.65235 0,-2.03125 1.625,-3.71093 3.65625,-3.71093 h 36.1875 c 2.03125,0 3.71484,1.67968 3.71484,3.71093"
         id="path838" />
      <path
         style="fill:#ffffff;fill-opacity:1;fill-rule:nonzero;stroke:none"
         d="m 366.86328,322.22656 -5.16406,10.26953 c -1.56641,2.95703 -3.82813,5.44922 -6.72656,7.25 -1.80079,1.09766 -3.71094,1.85547 -5.80079,2.25782 v 12.53125 c 0,2.08593 -1.625,3.71093 -3.65234,3.71093 -2.03125,0 -3.71484,-1.625 -3.71484,-3.71093 v -12.53125 c -2.02735,-0.40235 -4,-1.16016 -5.79688,-2.25782 -2.84375,-1.80078 -5.16406,-4.29297 -6.67187,-7.25 l -5.21875,-10.26953 c -0.92969,-1.85156 -0.17578,-4.05859 1.625,-4.98437 1.79687,-0.92969 4.05859,-0.17578 4.98437,1.62109 l 5.16406,10.26563 c 1.85547,3.65625 5.56641,5.91796 9.62891,5.91796 4.05859,0 7.71094,-2.26171 9.56641,-5.91796 l 5.22265,-10.26563 c 0.92578,-1.79687 3.13282,-2.55078 4.92969,-1.62109 1.85547,0.92578 2.55078,3.13281 1.625,4.98437"
         id="path840" />
      <path
         style="fill:#ffffff;fill-opacity:1;fill-rule:nonzero;stroke:none"
         d="m 433.50391,354.53516 c 0,2.08593 -1.6836,3.71093 -3.71094,3.71093 h -31.26172 c -2.03125,0 -3.65625,-1.625 -3.65625,-3.71093 v -33.98829 c 0,-2.03125 1.625,-3.71093 3.65625,-3.71093 2.02734,0 3.71094,1.67968 3.71094,3.71093 v 30.33204 h 27.55078 c 2.02734,0 3.71094,1.625 3.71094,3.65625"
         id="path842" />
      <path
         style="fill:#ffffff;fill-opacity:1;fill-rule:nonzero;stroke:none"
         d="m 450.90625,353.60547 c 0,2.55469 -2.08984,4.64062 -4.64063,4.64062 -2.55078,0 -4.64062,-2.08593 -4.64062,-4.64062 0,-2.55078 2.08984,-4.64063 4.64062,-4.64063 2.55079,0 4.64063,2.08985 4.64063,4.64063"
         id="path844" />
      <path
         style="fill:#ffffff;fill-opacity:1;fill-rule:nonzero;stroke:none"
         d="m 523.92578,320.54687 v 16.99219 c 0,2.84375 -0.46484,5.51172 -1.44922,8.00391 -1.04687,2.55469 -2.49609,4.8164 -4.46875,6.67187 -4.05859,3.94141 -9.80078,6.03125 -16.58594,6.03125 h -2.96093 c -6.72657,0 -12.46875,-2.03125 -16.52735,-5.91797 -1.44922,-1.44921 -1.50781,-3.76953 -0.11718,-5.21875 1.45312,-1.50781 3.76953,-1.50781 5.22265,-0.11718 2.66797,2.55468 6.60938,3.88672 11.42188,3.88672 h 2.96093 c 9.33594,0 15.13672,-5.10157 15.13672,-13.33985 v -16.99219 c 0,-2.03125 1.625,-3.71093 3.71094,-3.71093 2.03125,0 3.65625,1.67968 3.65625,3.71093"
         id="path846" />
      <path
         style="fill:#ffffff;fill-opacity:1;fill-rule:nonzero;stroke:none"
         d="m 541.32422,353.60547 c 0,2.55469 -2.08594,4.64062 -4.64063,4.64062 -2.55078,0 -4.63672,-2.08593 -4.63672,-4.64062 0,-2.55078 2.08594,-4.64063 4.63672,-4.64063 2.55469,0 4.64063,2.08985 4.64063,4.64063"
         id="path848" />
      <path
         style="fill:#ffffff;fill-opacity:1;fill-rule:nonzero;stroke:none"
         d="m 627.80078,320.54687 v 33.98829 c 0,2.08593 -1.62109,3.71093 -3.65234,3.71093 -2.03125,0 -3.71094,-1.625 -3.71094,-3.71093 V 329.1875 l -18.38672,17.69141 c -1.33594,1.33203 -3.76953,1.33203 -5.10547,0 L 578.5625,329.1875 v 25.34766 c 0,2.08593 -1.68359,3.71093 -3.71484,3.71093 -2.02735,0 -3.65235,-1.625 -3.65235,-3.71093 v -33.98829 c 0,-1.50781 0.8711,-2.84375 2.20313,-3.42187 1.39062,-0.58203 2.95703,-0.28906 4.0039,0.75391 l 22.09375,21.22656 22.10157,-21.22656 c 1.04296,-1.04297 2.60546,-1.33594 4,-0.75391 1.33593,0.57812 2.20312,1.91406 2.20312,3.42187"
         id="path850" />
      <path
         style="fill:#ffffff;fill-opacity:1;fill-rule:nonzero;stroke:none"
         d="m 665.73437,344.90625 c 0,3.65234 -2.95703,6.60937 -6.61328,6.60937 -3.65234,0 -6.61328,-2.95703 -6.61328,-6.60937 0,-3.65234 2.96094,-6.61328 6.61328,-6.61328 3.65625,0 6.61328,2.96094 6.61328,6.61328 m 18.5,8.11719 c 0.8125,1.85937 0,4.0625 -1.85546,4.875 -0.46485,0.23047 -0.98438,0.34765 -1.50782,0.34765 -1.39062,0 -2.72656,-0.8125 -3.36328,-2.14843 l -12.875,-28.35938 c -0.98828,-2.14453 -3.1914,-3.48047 -5.51172,-3.48047 -2.375,0 -4.52343,1.33594 -5.50781,3.48047 l -12.9375,28.35938 c -0.80859,1.85937 -3.01172,2.66796 -4.87109,1.80078 -1.85547,-0.8125 -2.66797,-3.01563 -1.79688,-4.875 l 12.875,-28.30078 c 2.20313,-4.75391 6.96094,-7.88672 12.23828,-7.88672 5.21875,0 10.03516,3.13281 12.17969,7.88672 z m 0,0"
         id="path852" />
      <path
         style="fill:#ffffff;fill-opacity:1;fill-rule:nonzero;stroke:none"
         d="m 733.94141,320.54687 v 33.98829 c 0,1.50781 -0.8711,2.83984 -2.20313,3.42187 -0.46484,0.17188 -0.98828,0.28906 -1.44922,0.28906 -0.92969,0 -1.85937,-0.34765 -2.55469,-0.98437 L 697.75,329.07031 v 25.46485 c 0,2.08593 -1.625,3.71093 -3.65625,3.71093 -2.02734,0 -3.71094,-1.625 -3.71094,-3.71093 v -33.98829 c 0,-1.44921 0.8711,-2.78515 2.26172,-3.36328 1.33594,-0.58203 2.90234,-0.34765 3.94531,0.69532 l 29.98438,28.1289 v -25.46094 c 0,-2.03125 1.625,-3.71093 3.71484,-3.71093 2.02735,0 3.65235,1.67968 3.65235,3.71093"
         id="path854" />
      <path
         style="fill:#ffffff;fill-opacity:1;fill-rule:nonzero;stroke:none"
         d="m 749.42578,320.54687 v 33.98829 c 0,2.08593 -1.67969,3.71093 -3.71094,3.71093 -2.02734,0 -3.65234,-1.625 -3.65234,-3.71093 v -33.98829 c 0,-2.03125 1.625,-3.71093 3.65234,-3.71093 2.03125,0 3.71094,1.67968 3.71094,3.71093"
         id="path856" />
      <path
         style="fill:#ffffff;fill-opacity:1;fill-rule:nonzero;stroke:none"
         d="m 801.10547,354.53516 c 0,2.08593 -1.6836,3.71093 -3.71485,3.71093 h -36.1875 c -2.03125,0 -3.65625,-1.625 -3.65625,-3.71093 0,-2.03125 1.625,-3.65625 3.65625,-3.65625 h 36.1875 c 2.03125,0 3.71485,1.625 3.71485,3.65625 m 0,-16.9961 c 0,2.03125 -1.6836,3.71485 -3.71485,3.71485 h -36.1875 c -2.03125,0 -3.65625,-1.6836 -3.65625,-3.71485 0,-2.02734 1.625,-3.65234 3.65625,-3.65234 h 36.1875 c 2.03125,0 3.71485,1.625 3.71485,3.65234 m 0,-16.99219 c 0,2.03125 -1.6836,3.65235 -3.71485,3.65235 h -36.1875 c -2.03125,0 -3.65625,-1.6211 -3.65625,-3.65235 0,-2.03125 1.625,-3.71093 3.65625,-3.71093 h 36.1875 c 2.03125,0 3.71485,1.67968 3.71485,3.71093"
         id="path858" />
      <path
         style="fill:#ffffff;fill-opacity:1;fill-rule:nonzero;stroke:none"
         d="m 234.15625,396.53125 c 0,1.39844 -1.12109,2.55859 -2.51953,2.55859 h -22.4375 V 408.25 c 0,1.4375 -1.1211,2.55859 -2.51953,2.55859 -1.39844,0 -2.5586,-1.12109 -2.5586,-2.55859 v -11.71875 c 0,-1.40234 1.16016,-2.51953 2.5586,-2.51953 h 24.95703 c 1.39844,0 2.51953,1.11719 2.51953,2.51953 m 0,-11.71875 c 0,1.39844 -1.12109,2.51953 -2.51953,2.51953 h -24.95703 c -1.39844,0 -2.5586,-1.12109 -2.5586,-2.51953 0,-1.39844 1.16016,-2.55859 2.5586,-2.55859 h 24.95703 c 1.39844,0 2.51953,1.16015 2.51953,2.55859"
         id="path860" />
      <path
         style="fill:#ffffff;fill-opacity:1;fill-rule:nonzero;stroke:none"
         d="m 268.99609,384.8125 v 11.71875 c 0,1.91797 -0.28125,3.75781 -0.8789,5.39844 -0.60157,1.75781 -1.52344,3.32031 -2.72266,4.64062 -2.55859,2.75781 -6.19922,4.23828 -10.51562,4.23828 h -1.80079 c -4.28125,0 -7.91796,-1.48047 -10.48046,-4.23828 -1.19922,-1.32031 -2.11719,-2.88281 -2.71875,-4.64062 -0.59766,-1.64063 -0.91797,-3.48047 -0.91797,-5.39844 V 384.8125 c 0,-1.39844 1.16015,-2.55859 2.55859,-2.55859 1.39844,0 2.55859,1.16015 2.55859,2.55859 v 11.71875 c 0,4.4375 2.35938,9.19531 9,9.19531 h 1.80079 c 6.67578,0 9.03515,-4.75781 9.03515,-9.19531 V 384.8125 c 0,-1.39844 1.16016,-2.55859 2.5586,-2.55859 1.40234,0 2.52343,1.16015 2.52343,2.55859"
         id="path862" />
      <path
         style="fill:#ffffff;fill-opacity:1;fill-rule:nonzero;stroke:none"
         d="m 301.23437,408.24609 c 0,1.44141 -1.16015,2.5625 -2.55859,2.5625 h -21.55469 c -1.40234,0 -2.51953,-1.12109 -2.51953,-2.5625 V 384.8125 c 0,-1.40234 1.11719,-2.55859 2.51953,-2.55859 1.39844,0 2.5586,1.15625 2.5586,2.55859 v 20.91406 h 18.99609 c 1.39844,0 2.55859,1.1211 2.55859,2.51953"
         id="path864" />
      <path
         style="fill:#ffffff;fill-opacity:1;fill-rule:nonzero;stroke:none"
         d="m 332.27734,408.24609 c 0,1.44141 -1.16015,2.5625 -2.5625,2.5625 h -21.55468 c -1.40235,0 -2.51954,-1.12109 -2.51954,-2.5625 V 384.8125 c 0,-1.40234 1.11719,-2.55859 2.51954,-2.55859 1.39843,0 2.55859,1.15625 2.55859,2.55859 v 20.91406 h 18.99609 c 1.40235,0 2.5625,1.1211 2.5625,2.51953"
         id="path866" />
      <path
         style="fill:#ffffff;fill-opacity:1;fill-rule:nonzero;stroke:none"
         d="m 382.91406,402.41016 c 0,4.63671 -3.75781,8.39843 -8.39844,8.39843 h -17.39453 c -1.40234,0 -2.5625,-1.12109 -2.5625,-2.55859 0,-1.40234 1.16016,-2.52344 2.5625,-2.52344 h 17.39453 c 1.83985,0 3.32032,-1.47656 3.32032,-3.3164 0,-1.83985 -1.48047,-3.32032 -3.32032,-3.32032 h -13.23828 c -4.63672,0 -8.39843,-3.80078 -8.39843,-8.39843 0,-4.64063 3.76171,-8.4375 8.39843,-8.4375 h 17.39844 c 1.39844,0 2.55859,1.16015 2.55859,2.55859 0,1.39844 -1.16015,2.51953 -2.55859,2.51953 h -17.39844 c -1.83984,0 -3.3164,1.51953 -3.3164,3.35938 0,1.80078 1.47656,3.32031 3.3164,3.32031 h 13.23828 c 4.64063,0 8.39844,3.75781 8.39844,8.39844"
         id="path868" />
      <path
         style="fill:#ffffff;fill-opacity:1;fill-rule:nonzero;stroke:none"
         d="m 413.75391,384.8125 c 0,1.39844 -1.11719,2.51953 -2.51954,2.51953 h -9.95703 V 408.25 c 0,1.4375 -1.12109,2.55859 -2.51953,2.55859 -1.39844,0 -2.55859,-1.12109 -2.55859,-2.55859 v -20.91797 h -9.91797 c -1.40234,0 -2.55859,-1.12109 -2.55859,-2.51953 0,-1.39844 1.15625,-2.55859 2.55859,-2.55859 h 24.95312 c 1.40235,0 2.51954,1.16015 2.51954,2.55859"
         id="path870" />
      <path
         style="fill:#ffffff;fill-opacity:1;fill-rule:nonzero;stroke:none"
         d="m 433.51562,401.60937 c 0,2.51954 -2.03906,4.5586 -4.55859,4.5586 -2.51953,0 -4.55859,-2.03906 -4.55859,-4.5586 0,-2.51953 2.03906,-4.55859 4.55859,-4.55859 2.51953,0 4.55859,2.03906 4.55859,4.55859 m 12.75782,5.59766 c 0.55859,1.28125 0,2.80078 -1.27735,3.35938 -0.32031,0.16015 -0.67968,0.24218 -1.04297,0.24218 -0.95703,0 -1.8789,-0.55859 -2.32031,-1.48047 l -8.875,-19.55859 c -0.67969,-1.47656 -2.20312,-2.39844 -3.80078,-2.39844 -1.64062,0 -3.12109,0.92188 -3.80078,2.39844 l -8.91797,19.55859 c -0.55859,1.27735 -2.07812,1.83985 -3.35937,1.23829 -1.28125,-0.5586 -1.83985,-2.07813 -1.23829,-3.35938 l 8.87891,-19.51562 c 1.51953,-3.27735 4.79688,-5.4375 8.4375,-5.4375 3.59766,0 6.91797,2.16015 8.39844,5.4375 z m 0,0"
         id="path872" />
      <path
         style="fill:#ffffff;fill-opacity:1;fill-rule:nonzero;stroke:none"
         d="m 454,396.53125 c 0,5.67969 4.03906,9.19531 10.47656,9.19531 h 2 c 3.32031,0 6.03906,-0.91797 7.87891,-2.67578 1.03906,-0.96094 2.64062,-0.96094 3.59765,0.0781 0.96094,1 0.96094,2.59765 -0.0781,3.59765 -2.80078,2.6836 -6.71875,4.08203 -11.39844,4.08203 h -2 c -4.71875,0 -8.67578,-1.4414 -11.47656,-4.16015 -1.32031,-1.28125 -2.35938,-2.83985 -3.03906,-4.59766 -0.6836,-1.72266 -1.03907,-3.5625 -1.03907,-5.51953 0,-1.92188 0.35547,-3.80078 1.03907,-5.48047 0.67968,-1.75781 1.71875,-3.32031 3.03906,-4.63672 2.80078,-2.72265 6.75781,-4.16015 11.47656,-4.16015 h 2 c 4.71875,0 8.67969,1.4375 11.47656,4.16015 1,0.9961 1,2.59766 0.043,3.59766 -0.96093,1 -2.60156,1.03906 -3.60156,0.0391 -1.83984,-1.75781 -4.55859,-2.71875 -7.91797,-2.71875 h -2 c -6.4375,0 -10.47656,3.55859 -10.47656,9.19922"
         id="path874" />
      <path
         style="fill:#ffffff;fill-opacity:1;fill-rule:nonzero;stroke:none"
         d="m 513.35547,406.60937 c 0.8789,1.07813 0.75781,2.67969 -0.32031,3.59766 -0.48047,0.39844 -1.03907,0.60156 -1.64063,0.60156 -0.71875,0 -1.4375,-0.32031 -1.91797,-0.92187 l -9.16015,-10.79688 H 489 V 408.25 c 0,1.4375 -1.16016,2.55859 -2.55859,2.55859 -1.40235,0 -2.52344,-1.12109 -2.52344,-2.55859 v -23.4375 c 0,-1.39844 1.12109,-2.55859 2.52344,-2.55859 1.39843,0 2.55859,1.16015 2.55859,2.55859 v 9.19922 h 9.83594 c 2.4414,0 4.76172,-0.96094 6.48047,-2.71875 1.76171,-1.72266 2.67968,-4.03906 2.67968,-6.48047 0,-1.39844 1.16016,-2.55859 2.5586,-2.55859 1.40234,0 2.5625,1.16015 2.5625,2.55859 0,1.91797 -0.40235,3.80078 -1.16016,5.55859 -0.72266,1.67969 -1.72266,3.19922 -3.04297,4.51953 -0.99609,1 -2.11719,1.83985 -3.35937,2.51954 z m 0,0"
         id="path876" />
      <path
         style="fill:#ffffff;fill-opacity:1;fill-rule:nonzero;stroke:none"
         d="m 563.47266,390.96875 c 0.72265,1.76172 1.12109,3.64062 1.12109,5.5625 0,1.91797 -0.39844,3.79687 -1.12109,5.55859 -0.71875,1.71875 -1.75782,3.23828 -3.07813,4.5586 -1.27734,1.27734 -2.83984,2.32031 -4.51953,3.03906 -1.75781,0.76172 -3.63672,1.12109 -5.55859,1.12109 h -13.23829 c -1.39843,0 -2.51953,-1.12109 -2.51953,-2.5625 0,-1.39843 1.1211,-2.51562 2.51953,-2.51562 h 13.23829 c 5.07812,0 9.19921,-4.1211 9.19921,-9.19922 0,-5.03906 -4.12109,-9.19922 -9.19921,-9.19922 h -10.67969 v 9.19922 c 0,1.39844 -1.11719,2.55859 -2.5586,2.55859 -1.39843,0 -2.51953,-1.16015 -2.51953,-2.55859 V 384.8125 c 0,-1.40234 1.1211,-2.55859 2.51953,-2.55859 h 13.23829 c 1.92187,0 3.80078,0.39843 5.55859,1.11718 1.67969,0.71875 3.24219,1.76172 4.51953,3.08203 1.32031,1.32032 2.35938,2.83594 3.07813,4.51563"
         id="path878" />
      <path
         style="fill:#ffffff;fill-opacity:1;fill-rule:nonzero;stroke:none"
         d="m 599.03516,408.24609 c 0,1.44141 -1.16016,2.5625 -2.5625,2.5625 h -24.95313 c -1.40234,0 -2.51953,-1.12109 -2.51953,-2.5625 0,-1.39843 1.11719,-2.51953 2.51953,-2.51953 h 24.95313 c 1.40234,0 2.5625,1.1211 2.5625,2.51953 m 0,-11.71484 c 0,1.39844 -1.16016,2.55859 -2.5625,2.55859 h -24.95313 c -1.40234,0 -2.51953,-1.16015 -2.51953,-2.55859 0,-1.40234 1.11719,-2.51953 2.51953,-2.51953 h 24.95313 c 1.40234,0 2.5625,1.11719 2.5625,2.51953 m 0,-11.71875 c 0,1.39844 -1.16016,2.51953 -2.5625,2.51953 h -24.95313 c -1.40234,0 -2.51953,-1.12109 -2.51953,-2.51953 0,-1.40234 1.11719,-2.55859 2.51953,-2.55859 h 24.95313 c 1.40234,0 2.5625,1.15625 2.5625,2.55859"
         id="path880" />
      <path
         style="fill:#ffffff;fill-opacity:1;fill-rule:nonzero;stroke:none"
         d="m 637.55469,385.85156 -8.92188,19.5586 c -1.47656,3.27734 -4.79687,5.39843 -8.39453,5.39843 -3.64062,0 -6.92187,-2.12109 -8.44141,-5.39843 l -8.91796,-19.5586 c -0.5586,-1.27734 0,-2.75781 1.28125,-3.35937 1.27734,-0.5586 2.79687,0 3.35937,1.28125 l 8.91797,19.51562 c 0.67969,1.48047 2.16016,2.44141 3.80078,2.44141 1.59766,0 3.07813,-0.96094 3.75781,-2.44141 l 8.91797,-19.51562 c 0.60156,-1.28125 2.07813,-1.83985 3.35938,-1.28125 1.28125,0.60156 1.83984,2.08203 1.28125,3.35937"
         id="path882" />
    </g>
    <g
       inkscape:groupmode="layer"
       id="layer2"
       inkscape:label="Background"
       style="display:none">
      <path
         style="fill:#ff0000;stroke-width:1.34918"
         d="M -634.11569,318.40703 V -78.252574 H -72.855845 488.404 V 318.40703 715.06663 H -72.855845 -634.11569 Z m 279.01395,143.35062 0.40781,-7.08321 h 15.27988 c 15.92252,0 19.66018,-1.27789 17.81346,-6.09037 -0.67711,-1.76449 -3.79717,-2.02095 -20.72598,-1.70365 l -19.92888,0.37352 -0.40358,9.31042 c -0.48947,11.29216 0.14997,13.27044 4.1078,12.70842 2.65178,-0.37656 3.09397,-1.33991 3.44949,-7.51513 z m 74.82835,2.6303 c 4.28698,-4.28396 4.37389,-4.61718 4.82557,-18.50134 0.39059,-12.00608 0.13357,-14.26404 -1.70365,-14.96907 -4.48119,-1.71959 -6.17682,1.95314 -6.17682,13.37898 0,13.80809 -2.37778,17.12383 -12.27989,17.12383 -9.43823,0 -12.00539,-3.75408 -12.00539,-17.55611 0,-10.89002 -1.74978,-14.64551 -6.05414,-12.99377 -1.62117,0.6221 -2.04095,3.38709 -2.04095,13.44323 0,10.94418 0.41692,13.27874 3.07616,17.22477 4.44862,6.60131 8.2805,8.15468 18.86729,7.64842 8.20763,-0.39249 9.56565,-0.87552 13.49182,-4.79894 z m 47.99294,1.91621 c 0.75487,-3.93529 -2.15587,-4.84084 -15.6318,-4.86315 l -12.47994,-0.0207 v -14.00122 c 0,-14.56131 -1.38283,-18.34122 -6.05414,-16.54866 -1.68093,0.64504 -2.04095,3.96383 -2.04095,18.81463 0,9.91728 0.42201,18.45345 0.9378,18.96923 0.51578,0.51579 8.55285,0.76876 17.86011,0.56216 15.32684,-0.34022 16.96821,-0.61481 17.40892,-2.91233 z m 41.56444,1.17034 c 1.74515,-4.5478 -2.03668,-6.05415 -15.19949,-6.05415 h -12.65203 V 448.1864 c 0,-14.08105 -1.66303,-19.00096 -5.87622,-17.3842 -1.91317,0.73414 -2.21888,3.45969 -2.21888,19.78236 v 18.93089 h 17.58171 c 14.44936,0 17.72125,-0.36362 18.36491,-2.04095 z m 63.53881,-0.0216 c 3.99524,-2.79837 5.20704,-10.00575 2.54714,-15.14943 -2.70419,-5.22934 -4.23022,-5.72413 -17.65382,-5.72413 -8.30296,0 -11.62612,-0.52247 -12.87209,-2.02378 -1.32093,-1.59163 -1.32905,-2.44613 -0.038,-4.00175 1.20131,-1.44749 5.3164,-2.08073 15.34351,-2.36107 13.6138,-0.38062 13.70195,-0.40478 13.70195,-3.75604 v -3.37296 l -15.05305,-0.38031 c -14.26368,-0.36036 -15.25259,-0.20869 -18.85789,2.89246 -4.98737,4.28995 -5.36184,12.78199 -0.76629,17.37755 2.61454,2.61454 4.86951,3.13323 16.15953,3.71706 11.99535,0.62032 13.12097,0.91001 13.12097,3.37689 0,2.47352 -1.01179,2.72644 -12.14264,3.03539 -15.28719,0.4243 -18.21396,1.09694 -18.21396,4.18596 0,1.34628 0.40476,2.85254 0.89946,3.34724 0.49469,0.4947 7.6452,0.89946 15.88998,0.89946 11.26658,0 15.72206,-0.51238 17.93524,-2.06255 z m 28.393161,-13.72431 0.380874,-15.11228 7.714219,-0.40332 c 7.221512,-0.37758 7.714234,-0.61878 7.714234,-3.77629 v -3.37296 H -102.53786 -122.101 v 3.37296 c 0,3.15983 0.49017,3.39852 7.7578,3.77757 l 7.7578,0.40463 v 14.54882 c 0,8.00184 0.43036,14.97917 0.95637,15.50518 0.526,0.52599 2.19561,0.77896 3.71025,0.56215 2.558329,-0.36621 2.780931,-1.46729 3.134741,-15.50648 z m 26.261253,1.00234 c 9.827701,-21.14724 11.421449,-21.14454 20.679835,0.035 5.580151,12.76515 6.875015,14.74956 9.624473,14.74956 1.747285,0 3.486179,-0.80603 3.86422,-1.79118 1.096224,-2.85672 -11.404287,-29.53229 -15.757033,-33.62486 -4.388984,-4.12665 -8.909676,-4.67922 -14.525,-1.77543 -2.856785,1.4773 -5.420744,5.64198 -10.842852,17.6122 -3.905721,8.62257 -6.764436,16.55532 -6.352679,17.62832 0.411757,1.07302 2.028806,1.95095 3.593453,1.95095 2.302541,0 4.15447,-2.81815 9.715583,-14.78452 z m 72.18549042,12.10094 c 7.92098188,-4.82952 4.67561828,-11.77179 -3.52147382,-7.5329 -2.256278,1.16676 -6.9112676,2.12138 -10.3444236,2.12138 -5.15505,0 -6.956398,-0.71429 -10.343709,-4.10159 -3.447862,-3.44788 -3.963695,-4.79112 -3.236378,-8.42771 1.230778,-6.15388 4.94192,-9.24767 12.054661,-10.04938 4.622015,-0.52098 7.5115051,0.009 11.5700613,2.1252 4.79866376,2.50121 5.6371131,2.592 7.4250765,0.80405 7.5556372,-7.55564 -14.8110668,-14.75663 -27.8794898,-8.97584 -7.327072,3.24111 -10.588842,7.68023 -11.381891,15.49022 -0.72841,7.17354 2.591658,13.97109 8.873437,18.1676 6.180321,4.12871 20.3063004,4.32858 26.78412942,0.37897 z m 18.95906058,-5.07422 0.407804,-7.08321 h 7.027095 c 6.900514,0 7.133761,0.13371 12.948332,7.42051 4.157815,5.21057 6.865719,7.4205 9.092584,7.4205 4.749122,0 4.062348,-4.70607 -1.715849,-11.75759 l -4.887184,-5.96416 3.646125,-3.80574 c 4.583955,-4.78462 6.809768,-13.41956 4.149235,-16.09681 -2.695666,-2.71261 -6.044081,-0.85004 -6.991962,3.88932 -1.338686,6.69347 -7.456526,10.79887 -16.092413,10.79887 h -7.31698 v -6.58072 c 0,-6.96371 -2.372537,-10.54092 -6.054145,-9.12816 -1.688259,0.64785 -2.040948,4.07002 -2.040948,19.8037 v 19.0205 l 3.710251,-0.42691 c 3.460558,-0.39818 3.737694,-0.90359 4.118055,-7.51011 z m 91.608385,5.11405 c 5.71448,-3.48432 8.49789,-9.20979 8.49789,-17.48005 0,-5.63896 -0.69504,-7.55759 -4.17267,-11.51839 -5.28779,-6.02245 -11.27395,-7.766 -24.834746,-7.23342 l -10.793459,0.4239 -0.392207,11.15203 c -0.319513,9.08516 -0.004,11.30109 1.703667,11.95628 3.73405,1.4329 6.109043,-2.10765 6.109043,-9.10709 v -6.58072 h 7.509198 c 11.425574,0 16.654444,3.70816 16.733184,11.86667 0.0286,2.96199 -1.06255,5.55163 -3.26874,7.7578 -2.96159,2.9616 -4.44729,3.31163 -14.05606,3.31163 -12.326184,0 -15.012676,0.7099 -15.012676,3.96703 0,3.79486 1.191139,4.12831 14.728578,4.12302 10.443088,-0.004 13.760338,-0.51153 17.248998,-2.6387 z m 54.12241,-1.06652 -0.42691,-3.71025 -16.86478,-0.38995 c -9.27563,-0.21447 -18.23082,-0.0511 -19.90044,0.363 -2.89026,0.71688 -4.13915,4.54505 -2.1362,6.548 0.49469,0.4947 9.642,0.89946 20.32735,0.89946 h 19.42789 z m 36.12197,1.78749 c 1.50983,-1.05752 5.98122,-8.93574 9.93643,-17.50713 5.97337,-12.945 6.90231,-15.93259 5.48496,-17.64039 -3.46331,-4.17303 -5.57793,-1.94397 -12.86178,13.55777 -6.35229,13.51918 -7.72968,15.55535 -10.26746,15.17831 -3.43226,-0.50995 -3.45766,-0.5497 -11.27029,-17.63755 -4.77727,-10.44885 -6.58713,-13.15453 -8.79921,-13.15453 -1.5317,0 -3.15063,0.9531 -3.59764,2.118 -1.11818,2.91389 11.14856,30.23165 15.25502,33.97262 3.88008,3.53473 11.87436,4.08664 16.11997,1.1129 z M -57.303281,461.3795 c 1.960619,-2.16645 2.21073,-3.50649 1.196172,-6.40862 -2.350775,-6.72427 -12.701189,-5.26055 -12.701189,1.79617 0,6.6926 7.060743,9.52332 11.505017,4.61245 z m 221.655841,-11.0899 0.42691,-3.71025 h -19.6951 c -20.57932,0 -22.57303,0.59531 -20.45742,6.10853 0.66783,1.74032 3.78659,2.00272 20.04479,1.68647 l 19.25391,-0.3745 z m -486.13254,-15.85289 v -3.37296 l -19.03089,-0.37316 c -15.66999,-0.30725 -19.33025,-0.0121 -20.72598,1.66931 -0.93228,1.12334 -1.33638,2.97718 -0.89799,4.11963 0.6771,1.76449 3.79717,2.02095 20.72598,1.70365 l 19.92888,-0.37352 z m 485.70563,0 v -3.37296 l -19.25391,-0.37451 c -16.2582,-0.31625 -19.37696,-0.0538 -20.04479,1.68648 -0.43497,1.13354 -0.43497,2.98843 0,4.12197 0.66783,1.74032 3.78659,2.00273 20.04479,1.68648 l 19.25391,-0.37451 z M -540.7711,396.75175 c 1.8724,-1.47284 6.19888,-9.10034 9.94871,-17.53937 3.64949,-8.21324 6.98792,-14.93316 7.41875,-14.93316 0.43082,0 4.02832,7.01752 7.99443,15.59447 3.96612,8.57696 8.46066,16.46968 9.98787,17.53937 4.39589,3.079 13.33321,2.49501 16.69277,-1.09076 4.35691,-4.65029 22.10481,-44.15773 21.63773,-48.16633 -0.32018,-2.74776 -1.23766,-3.52157 -4.55992,-3.84583 -4.14304,-0.40438 -4.19799,-0.32107 -14.23774,21.58692 -5.54327,12.09606 -10.82993,21.99286 -11.74815,21.99286 -0.91823,0 -6.0895,-9.71412 -11.49172,-21.58692 -9.71866,-21.35931 -9.86788,-21.58692 -14.15269,-21.58692 -4.28195,0 -4.44132,0.24191 -14.22159,21.58692 -5.4401,11.8728 -10.64558,21.58692 -11.56772,21.58692 -0.92214,0 -6.11325,-9.71412 -11.53579,-21.58692 l -9.85917,-21.58692 h -4.50424 c -3.57596,0 -4.58914,0.59554 -4.91624,2.88973 -0.57714,4.0479 18.057,45.02539 22.15338,48.71649 4.2844,3.86053 12.34013,4.06448 16.96133,0.42945 z m 138.66731,-0.004 c 1.80627,-3.37506 1.78475,-3.55539 -0.7235,-6.06364 -1.7804,-1.7804 -6.27749,-2.12015 -28.06299,-2.12015 -18.37886,0 -26.4149,0.47205 -27.56187,1.61902 -1.74518,1.74518 -2.18551,6.80904 -0.71956,8.27498 0.49469,0.4953 13.22311,0.90005 28.28535,0.90005 25.69481,0 27.47216,-0.16114 28.78257,-2.60966 z m 59.29655,0.64533 c 4.35153,-2.24967 8.21003,-9.41307 8.21003,-15.24152 0,-5.6439 -5.29182,-12.84948 -10.84018,-14.76048 -2.57148,-0.88567 -11.4843,-1.64458 -19.80626,-1.68648 -13.70719,-0.069 -15.2667,-0.33003 -16.57494,-2.77451 -1.02604,-1.91717 -1.02604,-3.47955 0,-5.39673 1.34143,-2.50649 2.82494,-2.69836 20.86343,-2.69836 15.85499,0 19.80844,-0.38915 21.53944,-2.12015 2.50825,-2.50825 2.52977,-2.68858 0.7235,-6.06364 -1.29283,-2.41567 -3.02576,-2.60967 -23.3105,-2.60967 -23.96564,0 -26.03901,0.56158 -29.94245,8.10999 -4.61821,8.93064 -0.2538,20.73028 8.82412,23.85694 2.57147,0.88567 11.48429,1.64459 19.80625,1.68648 13.53444,0.0681 15.27818,0.35148 16.52748,2.68582 1.80627,3.37506 1.78475,3.55539 -0.7235,6.06364 -1.7234,1.72341 -5.61867,2.12015 -20.81595,2.12015 -15.19729,0 -19.09255,0.39674 -20.81596,2.12014 -2.53514,2.53513 -2.69997,4.85545 -0.50112,7.0543 2.50575,2.50575 41.88469,2.21542 46.83661,-0.34533 z m 67.34479,-2.6114 c 0.25294,-2.2158 -0.32992,-4.39262 -1.34918,-5.03877 -0.98699,-0.6257 -10.14258,-1.14693 -20.34577,-1.15829 l -18.55126,-0.0201 v -19.65184 c 0,-10.96641 -0.61728,-20.80523 -1.39665,-22.26151 -1.56118,-2.91709 -6.64836,-3.46926 -9.12697,-0.99065 -2.30438,2.30438 -2.27769,49.80075 0.0293,52.10771 1.20489,1.20489 8.19155,1.54969 25.97176,1.28173 l 24.32347,-0.36658 0.44533,-3.90114 z m 66.86103,1.54008 c 1.08467,-1.72093 1.0847,-3.0012 1.1e-4,-4.72214 -1.32182,-2.09734 -4.46643,-2.40199 -28.15266,-2.72744 -18.52604,-0.25453 -27.23228,0.1047 -28.52439,1.1771 -1.94638,1.61536 -2.52511,6.84386 -0.93367,8.43529 0.50933,0.50934 13.34525,0.76231 28.52426,0.56216 24.57746,-0.32407 27.7611,-0.62234 29.08635,-2.72497 z m 39.90617,0.42599 c 0.76815,-1.43472 1.39664,-6.25087 1.39664,-10.70194 0,-6.99374 0.37852,-8.21301 2.78702,-8.97743 8.17219,-2.59377 20.804,-20.85784 19.89013,-28.75874 -0.33636,-2.90807 -1.20214,-3.67043 -4.53896,-3.99678 -3.78889,-0.37057 -4.39073,0.17396 -7.4205,6.71382 -1.81345,3.91439 -5.0297,9.10471 -7.1472,11.53402 -3.20965,3.68227 -4.7805,4.4098 -9.44427,4.37404 -7.28034,-0.0559 -9.31827,-1.76607 -15.41208,-12.93378 -4.08001,-7.47714 -5.76689,-9.36624 -8.6643,-9.70298 -2.48419,-0.28873 -4.03822,0.40458 -5.02037,2.23974 -1.1469,2.14301 -0.35783,4.78493 4.07333,13.63812 4.81312,9.61634 6.31683,11.43298 12.10574,14.62505 l 6.60994,3.6448 0.0194,8.83714 c 0.0108,5.04882 0.71349,9.53119 1.63846,10.45617 2.47861,2.47861 7.56579,1.92644 9.12697,-0.99065 z m 112.551713,-0.4254 c 1.084041,-1.72027 1.084216,-3.00186 6.07e-4,-4.72213 -1.287052,-2.04327 -4.14628,-2.41133 -21.242714,-2.73443 l -19.755483,-0.37337 -0.02064,-20.53896 c -0.01079,-11.29643 -0.53259,-21.34649 -1.158287,-22.33348 -0.64615,-1.01926 -2.822976,-1.60212 -5.038776,-1.34919 l -3.90116,0.44534 -0.36816,25.59292 c -0.20248,14.0761 -0.0645,26.38428 0.30667,27.35149 0.52768,1.3751 6.01911,1.67837 25.182467,1.39074 21.629726,-0.32466 24.682346,-0.64511 25.995478,-2.72893 z m 22.144143,1.41665 c 3.815582,-3.81559 0.336324,-11.87281 -5.126893,-11.87281 -5.463217,0 -8.942475,8.05722 -5.126893,11.87281 0.89046,0.89046 3.197562,1.61901 5.126893,1.61901 1.929331,0 4.236432,-0.72855 5.126893,-1.61901 z m 82.257581,-0.46916 c 6.38255,-2.66679 10.691312,-6.71023 13.975627,-13.11503 2.246496,-4.38095 2.554973,-7.4607 2.229766,-22.26151 l -0.37742,-17.17717 -3.901147,-0.44534 c -2.215803,-0.25293 -4.392628,0.32993 -5.038778,1.34919 -0.625697,0.98699 -1.149193,8.1694 -1.163332,15.96093 -0.02145,11.80459 -0.479648,14.91099 -2.748555,18.63245 -5.454447,8.94633 -20.727272,11.13823 -33.296834,4.77862 -5.833541,-2.9515 -7.420125,-3.27462 -9.1263416,-1.85858 -4.850985,4.02596 -1.6156998,10.16943 7.4191536,14.08823 6.373767,2.76455 25.457977,2.79329 32.027861,0.0482 z m 37.819645,0.46916 c 2.877819,-2.87782 1.959781,-9.07703 -1.583279,-10.69136 -6.144446,-2.79959 -12.153866,3.60749 -8.967624,9.56105 1.654489,3.09141 7.918715,3.76249 10.550903,1.13031 z m 51.538768,-16.92699 0.67459,-17.87143 12.36127,11.46281 c 6.79871,6.30454 13.37957,11.4628 14.62417,11.4628 1.24458,0 7.82463,-5.19227 14.62235,-11.53838 l 12.3595,-11.53837 0.67459,17.94699 c 0.65712,17.48225 0.75512,17.95841 3.78451,18.38785 6.51267,0.92325 7.00895,-0.97471 7.00895,-26.80477 0,-13.20535 -0.36852,-24.97009 -0.81894,-26.14385 -1.97171,-5.13818 -7.4378,-2.25868 -22.65708,11.93565 l -15.08572,14.06979 -15.09971,-14.16167 c -12.6816,-11.89378 -15.69765,-14.09293 -18.83353,-13.73249 l -3.73382,0.42919 -0.38391,24.28528 c -0.46917,29.67836 -0.29014,30.65996 5.48963,30.10134 l 4.33855,-0.41933 z m 91.02679,-1.35443 c 10.0181,-21.86334 11.84212,-24.62258 16.2771,-24.62258 4.25191,0 5.49938,1.93286 15.54214,24.08134 8.56366,18.88646 9.15038,19.78577 13.16965,20.18641 7.58578,0.75615 6.96761,-3.57973 -3.87966,-27.2127 -11.49758,-25.04983 -14.00993,-27.84851 -24.99936,-27.84851 -10.82569,0 -14.49752,4.07417 -25.45346,28.24241 -10.75182,23.71799 -11.17349,27.07406 -3.40177,27.07406 3.36007,0 4.29706,-1.46301 12.74536,-19.90043 z m 67.48189,16.86477 c 0.38817,-1.66961 0.8551,-9.91774 1.0376,-18.32919 l 0.33182,-15.29352 19.56314,18.31914 c 27.69192,25.93102 28.34184,25.71864 28.31218,-9.25154 -0.0108,-13.39401 -0.53259,-25.16027 -1.15829,-26.14726 -0.64615,-1.01926 -2.82298,-1.60212 -5.03878,-1.34919 l -3.90115,0.44534 -0.67459,18.21396 -0.67459,18.21396 -19.36565,-18.21396 c -16.39855,-15.42331 -20.01606,-18.21396 -23.61069,-18.21396 h -4.24504 l -0.36815,25.59292 c -0.20248,14.0761 -0.0697,26.37053 0.29495,27.32095 0.36471,0.9504 2.49199,1.72801 4.72729,1.72801 3.10614,0 4.23056,-0.71559 4.76995,-3.03566 z m 68.82854,-24.62257 v -26.98365 h -4.72214 -4.72214 l -0.36815,25.59292 c -0.20249,14.0761 -0.0549,26.4093 0.32801,27.40712 0.43731,1.1396 2.33008,1.65673 5.09029,1.39072 l 4.39413,-0.42347 z m 69.24915,23.87372 c 0.93546,-6.59879 -0.78171,-7.00894 -29.34363,-7.00894 -27.18948,0 -29.78666,0.47055 -29.78666,5.39673 0,5.06078 2.43787,5.46086 30.99021,5.0859 l 27.69922,-0.36377 z M 251.9598,387.61387 c 2.37901,-3.19295 2.09402,-9.8546 -0.54641,-12.77225 -2.24361,-2.47916 -9.25617,-3.31283 -12.06885,-1.43476 -5.17004,3.45214 -5.19645,12.24859 -0.0478,15.93399 3.46556,2.48066 10.21373,1.56035 12.66307,-1.72698 z m -655.13425,-12.07571 c 3.02559,-2.73812 3.12685,-5.00993 0.34716,-7.78961 -1.77456,-1.77455 -6.18743,-2.12014 -27.07234,-2.12014 -14.62008,0 -26.0328,0.57832 -27.56187,1.39664 -3.26613,1.74799 -3.41853,7.44243 -0.2486,9.28875 1.36406,0.79449 12.85597,1.39251 27.21471,1.41622 21.27139,0.0351 25.20925,-0.28081 27.32094,-2.19186 z m 193.28023,0.1128 c 1.16608,-1.16613 2.12014,-2.94416 2.12014,-3.95123 0,-1.00707 -0.95406,-2.78511 -2.12014,-3.95118 -1.77455,-1.77455 -6.18743,-2.12014 -27.07234,-2.12014 -14.62008,0 -26.0328,0.57832 -27.56187,1.39664 -3.26613,1.74799 -3.41853,7.44243 -0.2486,9.28875 1.36738,0.79642 12.96721,1.39246 27.56187,1.41622 21.14858,0.0344 25.5417,-0.29988 27.32094,-2.07912 z m 641.72126,0.7235 c 1.4808,-0.79257 2.60967,-2.81468 2.60967,-4.67473 0,-1.86005 -1.12887,-3.88217 -2.60967,-4.67468 -1.52907,-0.81832 -12.94179,-1.39664 -27.56187,-1.39664 -20.88491,0 -25.29779,0.34559 -27.07234,2.12014 -1.16609,1.16607 -2.12015,2.94411 -2.12015,3.95118 0,1.00707 0.95406,2.7851 2.12015,3.95117 1.77455,1.77455 6.18743,2.12015 27.07234,2.12015 14.62008,0 26.0328,-0.57833 27.56187,-1.39665 z M -402.82729,352.7148 c 1.16608,-1.16607 2.12014,-2.91312 2.12014,-3.88234 0,-4.33456 -3.58596,-4.84965 -31.20372,-4.48213 l -27.48571,0.36575 -0.44086,3.10992 c -0.9332,6.58289 0.8201,7.00895 28.84253,7.00895 21.88062,0 26.38664,-0.33916 28.16762,-2.12015 z m 192.93307,0 c 1.16608,-1.16607 2.11085,-2.83568 2.09949,-3.71025 -0.0619,-4.76754 -1.74624,-5.02511 -30.43294,-4.65387 l -28.23584,0.3654 -0.44086,3.10992 c -0.9332,6.58289 0.8201,7.00895 28.84253,7.00895 21.88062,0 26.38664,-0.33916 28.16762,-2.12015 z m 642.92011,0.17063 c 0.88987,-1.07222 1.41956,-3.34896 1.17708,-5.05943 l -0.44086,-3.10992 -28.6377,-0.36404 -28.63772,-0.36403 -0.90595,3.60961 c -1.64434,6.55157 1.19272,7.23733 29.94121,7.23733 20.92559,0 26.19603,-0.37358 27.50394,-1.94952 z m -666.4966,-54.84331 c 9.83041,-5.525 10.09847,-6.73428 10.85563,-48.97339 0.60617,-33.81612 0.91213,-37.7821 3.0169,-39.10756 1.84416,-1.16134 2.8778,-0.90514 4.86004,1.20459 1.38475,1.47381 8.71026,19.0722 16.2789,39.10756 7.56866,20.03536 15.19336,38.60978 16.94379,41.27649 4.6424,7.07254 11.17336,9.71808 22.42164,9.08249 6.94497,-0.39242 10.25459,-1.28658 13.41744,-3.62496 4.15135,-3.06923 4.26176,-3.07723 9.83937,-0.71325 4.63276,1.96353 10.76483,2.48928 34.31103,2.9418 l 28.670125,0.55098 V 289.5338 279.28074 h -24.328617 c -25.874998,0 -30.507588,-0.86905 -35.709998,-6.69897 -2.5443,-2.85119 -2.72196,-5.24983 -3.11164,-42.01086 l -0.41329,-38.98702 h -10.04288 -10.04288 v 42.58794 c 0,42.14203 -0.54043,47.80727 -4.5605,47.80727 -3.50498,0 -6.01879,-5.29274 -19.66252,-41.39877 -7.62263,-20.17215 -15.36845,-38.8975 -17.21292,-41.61188 -4.22649,-6.21984 -10.18949,-8.73374 -20.7165,-8.73374 -10.26945,0 -16.44799,2.79301 -20.46371,9.25061 -2.93693,4.72284 -3.08341,6.39295 -3.73152,42.54831 -0.60543,33.7743 -0.91405,37.78331 -3.01035,39.10342 -1.77458,1.11752 -2.82176,0.98489 -4.35864,-0.55199 -1.11259,-1.11259 -9.24875,-21.44122 -18.08036,-45.17474 l -16.05747,-43.15184 -10.93964,-0.39165 -10.93965,-0.39166 1.43629,3.76461 c 0.78996,2.07054 8.40472,22.51955 16.9217,45.44226 16.79296,45.19677 18.87203,49.96796 23.6472,54.26733 5.3851,4.84853 8.263,5.8348 17.14969,5.87726 6.27203,0.0299 9.94087,-0.72047 13.61334,-2.78451 z m 317.546004,1.30776 c 4.477262,-2.30593 9.129715,-6.86712 10.837456,-10.62486 0.964274,-2.12181 1.786978,-17.08183 2.21792,-40.33063 0.61404,-33.12687 0.927159,-37.11016 3.02081,-38.42882 1.78925,-1.12696 2.84011,-0.96681 4.49141,0.6845 1.18561,1.18561 9.32207,21.51424 18.08101,45.17474 l 15.92536,43.01907 10.93782,0.39164 10.93781,0.39163 -3.88633,-10.51049 C 131.5811,221.34929 124.72389,203.66839 121.85954,199.441 c -4.47673,-6.60703 -10.37635,-9.20629 -20.89582,-9.20629 -10.318137,0 -16.794428,3.00434 -20.687372,9.59686 -2.474428,4.19032 -2.754356,7.69265 -3.372956,42.20175 -0.606174,33.81568 -0.912142,37.78183 -3.016907,39.10756 -1.844953,1.16208 -2.870911,0.90636 -4.831637,-1.20428 -1.369124,-1.4738 -8.420719,-18.46507 -15.670213,-37.75837 -7.249508,-19.29331 -14.685486,-37.6971 -16.524421,-40.89732 -4.780882,-8.31998 -9.92499,-11.03502 -20.91949,-11.04116 -10.6451564,-0.005 -14.4836476,1.2397 -19.0734714,6.18962 -5.24527,5.65678 -6.3115288,12.92794 -6.3115288,43.04034 0,31.8273 -0.5631348,34.0763 -9.4197478,37.62002 -4.227973,1.6917 -10.235356,2.19101 -26.360891,2.19101 h -20.885018 v 10.24524 10.24525 l 25.297168,-0.49017 c 22.858063,-0.44293 25.945977,-0.78667 32.0262691,-3.56524 8.20914031,-3.7514 12.1971748,-7.34322 16.0010055,-14.41131 2.6983781,-5.01398 2.9344854,-7.66273 3.3291204,-37.3472 0.448819,-33.76025 0.908095,-36.09161 6.745022,-34.23903 1.935145,0.61418 6.221241,10.41669 17.205393,39.34954 8.045538,21.19238 16.043694,40.45012 17.773683,42.795 4.664001,6.3217 10.485602,8.88288 20.339517,8.94828 4.6866,0.0312 9.847223,-0.62644 11.468049,-1.46122 z"
         id="path1523"
         transform="scale(0.26458333)" />
    </g>
    <g
       inkscape:groupmode="layer"
       id="layer3"
       inkscape:label="WLJM"
       style="display:inline" />
  </g>
  <g
     inkscape:label="Layer 1 copy"
     inkscape:groupmode="layer"
     id="g1669"
     style="display:none"
     transform="translate(80.723161,-50.333738)">
    <g
       id="g1661"
       transform="matrix(0.35277778,0,0,0.35277778,-167.77659,-20.755117)">
      <path
         style="fill:#211e1e;fill-opacity:1;fill-rule:nonzero;stroke:none"
         d="M 0,595.27734 H 841.89062 V 0 H 0 Z m 0,0"
         id="path1601" />
      <path
         style="fill:#ffffff;fill-opacity:1;fill-rule:nonzero;stroke:none"
         d="m 381.46875,267.82812 c -2.09375,-0.71093 -3.77344,-1.67578 -5.03516,-2.90234 -1.26172,-1.22266 -2.15234,-2.67969 -2.66406,-4.38281 C 373.25781,258.84766 373,257.05078 373,255.15625 v -52.22266 h -14.44531 v 63.23828 c 0,1.33985 -0.375,2.42579 -1.125,3.25391 -0.75,0.82813 -1.71875,1.24609 -2.90235,1.24609 -2.13281,0 -3.59375,-1.10546 -4.38281,-3.3164 l -19.41797,-51.03906 c -1.58203,-4.57813 -3.78906,-8.19141 -6.63281,-10.83594 -2.84375,-2.64453 -6.94922,-3.96875 -12.31641,-3.96875 -5.92187,0 -10.34375,1.60156 -13.26172,4.79687 -2.92187,3.19922 -4.38281,7.40235 -4.38281,12.61328 v 47.25 c 0,1.33985 -0.39453,2.42579 -1.18359,3.25391 -0.78906,0.82813 -1.77735,1.24609 -2.96094,1.24609 -1.10547,0 -2.01172,-0.29687 -2.72266,-0.89062 -0.71093,-0.58984 -1.26562,-1.40234 -1.65625,-2.42578 L 261.6875,202.93359 h -14.92188 l 24.75,66.55078 c 1.57813,4.58204 3.76954,8.19141 6.57032,10.83594 2.80468,2.64453 6.89062,3.96875 12.25781,3.96875 5.92187,0 10.36328,-1.60156 13.32422,-4.79687 2.95703,-3.19532 4.4375,-7.44141 4.4375,-12.73047 v -47.13281 c 0,-1.41797 0.375,-2.54297 1.125,-3.3711 0.75,-0.83203 1.71875,-1.24219 2.90234,-1.24219 1.10547,0 2.03125,0.3125 2.78125,0.94532 0.75,0.63281 1.32422,1.46093 1.71875,2.48828 l 19.42188,51.03515 c 1.57812,4.58204 3.76953,8.19141 6.57031,10.83594 2.80469,2.64453 6.89062,3.96875 12.25781,3.96875 5.92188,0 10.35938,-1.60156 13.32031,-4.79687 0.4375,-0.46875 0.82813,-0.96875 1.19922,-1.48438 1.64844,1.08594 3.48438,2.02735 5.55078,2.78906 3.75,1.37891 8.26954,2.07032 13.5625,2.07032 h 31.85157 v -13.97266 h -31.02344 c -3.16016,0 -5.78516,-0.35547 -7.875,-1.06641"
         id="path1603" />
      <path
         style="fill:#ffffff;fill-opacity:1;fill-rule:nonzero;stroke:none"
         d="m 570.37109,216.3125 c -1.58593,-4.57031 -3.76562,-8.19141 -6.57422,-10.82422 -2.79687,-2.64844 -6.88671,-3.97656 -12.25,-3.97656 -5.92968,0 -10.37109,1.60156 -13.32812,4.80078 -2.95703,3.19922 -4.44531,7.39844 -4.44531,12.60156 v 47.26172 c 0,1.33984 -0.3711,2.42188 -1.11328,3.24609 -0.76172,0.83985 -1.73047,1.2461 -2.91016,1.2461 -2.21484,0 -3.71484,-1.09766 -4.49219,-3.3125 L 505.83984,216.3125 c -1.58593,-4.57031 -3.78125,-8.19141 -6.57812,-10.82422 -2.8125,-2.64844 -6.88281,-3.97656 -12.26172,-3.97656 -3.21875,0 -5.99609,0.46875 -8.33984,1.42187 -1.97266,0.79297 -3.63672,1.92578 -4.97657,3.37891 -2.5039,2.69922 -3.9414,6.12109 -4.32812,10.24219 -0.082,0.76172 -0.11328,1.55078 -0.11328,2.35937 v 38.26172 c -0.11328,1.16406 -0.33985,2.29297 -0.66407,3.375 -0.51562,1.69922 -1.40625,3.15234 -2.66406,4.37891 -1.26172,1.23047 -2.9414,2.18359 -5.02734,2.89453 -2.10156,0.71094 -4.71485,1.0664 -7.86719,1.0664 h -26.30469 v 13.97657 h 27.12891 c 5.28516,0 9.80469,-0.69532 13.55469,-2.07032 0.6289,-0.24218 1.26172,-0.48437 1.84375,-0.75781 2.92578,-1.29297 5.36328,-2.95703 7.33593,-4.99219 2.375,-2.4414 4.10157,-5.34765 5.19922,-8.69531 0.82422,-2.47265 1.32813,-5.10547 1.55469,-7.94922 0.0781,-1.01562 0.10938,-2.0664 0.10938,-3.13281 v -36.87109 c 0.16406,-0.85547 0.5039,-1.56641 1.01953,-2.13282 0.74609,-0.83984 1.71484,-1.24218 2.89062,-1.24218 1.03516,0 1.92578,0.30468 2.66797,0.93359 0.75781,0.63281 1.32422,1.47266 1.71094,2.48828 l 19.42187,51.04297 c 1.58594,4.57031 3.79688,8.19141 6.64063,10.82422 2.84375,2.64844 6.94922,3.97656 12.3125,3.97656 5.92969,0 10.33984,-1.60156 13.26562,-4.80078 2.92578,-3.19922 4.37891,-7.43359 4.37891,-12.73047 V 219.625 c 0,-1.42188 0.40234,-2.53516 1.17969,-3.35938 0.79297,-0.83984 1.77734,-1.24218 2.97265,-1.24218 1.09766,0 2.00391,0.30468 2.71485,0.93359 0.71093,0.63281 1.26172,1.47266 1.66406,2.48828 l 23.91406,64.42188 H 595.125 Z m 0,0"
         id="path1605" />
    </g>
  </g>
  <g
     inkscape:groupmode="layer"
     id="g1665"
     inkscape:label="Background"
     style="display:none"
     transform="translate(80.723161,-50.333738)">
    <path
       style="fill:#ff0000;stroke-width:1.34918"
       d="M -634.11569,318.40703 V -78.252574 H -72.855845 488.404 V 318.40703 715.06663 H -72.855845 -634.11569 Z m 279.01395,143.35062 0.40781,-7.08321 h 15.27988 c 15.92252,0 19.66018,-1.27789 17.81346,-6.09037 -0.67711,-1.76449 -3.79717,-2.02095 -20.72598,-1.70365 l -19.92888,0.37352 -0.40358,9.31042 c -0.48947,11.29216 0.14997,13.27044 4.1078,12.70842 2.65178,-0.37656 3.09397,-1.33991 3.44949,-7.51513 z m 74.82835,2.6303 c 4.28698,-4.28396 4.37389,-4.61718 4.82557,-18.50134 0.39059,-12.00608 0.13357,-14.26404 -1.70365,-14.96907 -4.48119,-1.71959 -6.17682,1.95314 -6.17682,13.37898 0,13.80809 -2.37778,17.12383 -12.27989,17.12383 -9.43823,0 -12.00539,-3.75408 -12.00539,-17.55611 0,-10.89002 -1.74978,-14.64551 -6.05414,-12.99377 -1.62117,0.6221 -2.04095,3.38709 -2.04095,13.44323 0,10.94418 0.41692,13.27874 3.07616,17.22477 4.44862,6.60131 8.2805,8.15468 18.86729,7.64842 8.20763,-0.39249 9.56565,-0.87552 13.49182,-4.79894 z m 47.99294,1.91621 c 0.75487,-3.93529 -2.15587,-4.84084 -15.6318,-4.86315 l -12.47994,-0.0207 v -14.00122 c 0,-14.56131 -1.38283,-18.34122 -6.05414,-16.54866 -1.68093,0.64504 -2.04095,3.96383 -2.04095,18.81463 0,9.91728 0.42201,18.45345 0.9378,18.96923 0.51578,0.51579 8.55285,0.76876 17.86011,0.56216 15.32684,-0.34022 16.96821,-0.61481 17.40892,-2.91233 z m 41.56444,1.17034 c 1.74515,-4.5478 -2.03668,-6.05415 -15.19949,-6.05415 h -12.65203 V 448.1864 c 0,-14.08105 -1.66303,-19.00096 -5.87622,-17.3842 -1.91317,0.73414 -2.21888,3.45969 -2.21888,19.78236 v 18.93089 h 17.58171 c 14.44936,0 17.72125,-0.36362 18.36491,-2.04095 z m 63.53881,-0.0216 c 3.99524,-2.79837 5.20704,-10.00575 2.54714,-15.14943 -2.70419,-5.22934 -4.23022,-5.72413 -17.65382,-5.72413 -8.30296,0 -11.62612,-0.52247 -12.87209,-2.02378 -1.32093,-1.59163 -1.32905,-2.44613 -0.038,-4.00175 1.20131,-1.44749 5.3164,-2.08073 15.34351,-2.36107 13.6138,-0.38062 13.70195,-0.40478 13.70195,-3.75604 v -3.37296 l -15.05305,-0.38031 c -14.26368,-0.36036 -15.25259,-0.20869 -18.85789,2.89246 -4.98737,4.28995 -5.36184,12.78199 -0.76629,17.37755 2.61454,2.61454 4.86951,3.13323 16.15953,3.71706 11.99535,0.62032 13.12097,0.91001 13.12097,3.37689 0,2.47352 -1.01179,2.72644 -12.14264,3.03539 -15.28719,0.4243 -18.21396,1.09694 -18.21396,4.18596 0,1.34628 0.40476,2.85254 0.89946,3.34724 0.49469,0.4947 7.6452,0.89946 15.88998,0.89946 11.26658,0 15.72206,-0.51238 17.93524,-2.06255 z m 28.393161,-13.72431 0.380874,-15.11228 7.714219,-0.40332 c 7.221512,-0.37758 7.714234,-0.61878 7.714234,-3.77629 v -3.37296 H -102.53786 -122.101 v 3.37296 c 0,3.15983 0.49017,3.39852 7.7578,3.77757 l 7.7578,0.40463 v 14.54882 c 0,8.00184 0.43036,14.97917 0.95637,15.50518 0.526,0.52599 2.19561,0.77896 3.71025,0.56215 2.558329,-0.36621 2.780931,-1.46729 3.134741,-15.50648 z m 26.261253,1.00234 c 9.827701,-21.14724 11.421449,-21.14454 20.679835,0.035 5.580151,12.76515 6.875015,14.74956 9.624473,14.74956 1.747285,0 3.486179,-0.80603 3.86422,-1.79118 1.096224,-2.85672 -11.404287,-29.53229 -15.757033,-33.62486 -4.388984,-4.12665 -8.909676,-4.67922 -14.525,-1.77543 -2.856785,1.4773 -5.420744,5.64198 -10.842852,17.6122 -3.905721,8.62257 -6.764436,16.55532 -6.352679,17.62832 0.411757,1.07302 2.028806,1.95095 3.593453,1.95095 2.302541,0 4.15447,-2.81815 9.715583,-14.78452 z m 72.18549042,12.10094 c 7.92098188,-4.82952 4.67561828,-11.77179 -3.52147382,-7.5329 -2.256278,1.16676 -6.9112676,2.12138 -10.3444236,2.12138 -5.15505,0 -6.956398,-0.71429 -10.343709,-4.10159 -3.447862,-3.44788 -3.963695,-4.79112 -3.236378,-8.42771 1.230778,-6.15388 4.94192,-9.24767 12.054661,-10.04938 4.622015,-0.52098 7.5115051,0.009 11.5700613,2.1252 4.79866376,2.50121 5.6371131,2.592 7.4250765,0.80405 7.5556372,-7.55564 -14.8110668,-14.75663 -27.8794898,-8.97584 -7.327072,3.24111 -10.588842,7.68023 -11.381891,15.49022 -0.72841,7.17354 2.591658,13.97109 8.873437,18.1676 6.180321,4.12871 20.3063004,4.32858 26.78412942,0.37897 z m 18.95906058,-5.07422 0.407804,-7.08321 h 7.027095 c 6.900514,0 7.133761,0.13371 12.948332,7.42051 4.157815,5.21057 6.865719,7.4205 9.092584,7.4205 4.749122,0 4.062348,-4.70607 -1.715849,-11.75759 l -4.887184,-5.96416 3.646125,-3.80574 c 4.583955,-4.78462 6.809768,-13.41956 4.149235,-16.09681 -2.695666,-2.71261 -6.044081,-0.85004 -6.991962,3.88932 -1.338686,6.69347 -7.456526,10.79887 -16.092413,10.79887 h -7.31698 v -6.58072 c 0,-6.96371 -2.372537,-10.54092 -6.054145,-9.12816 -1.688259,0.64785 -2.040948,4.07002 -2.040948,19.8037 v 19.0205 l 3.710251,-0.42691 c 3.460558,-0.39818 3.737694,-0.90359 4.118055,-7.51011 z m 91.608385,5.11405 c 5.71448,-3.48432 8.49789,-9.20979 8.49789,-17.48005 0,-5.63896 -0.69504,-7.55759 -4.17267,-11.51839 -5.28779,-6.02245 -11.27395,-7.766 -24.834746,-7.23342 l -10.793459,0.4239 -0.392207,11.15203 c -0.319513,9.08516 -0.004,11.30109 1.703667,11.95628 3.73405,1.4329 6.109043,-2.10765 6.109043,-9.10709 v -6.58072 h 7.509198 c 11.425574,0 16.654444,3.70816 16.733184,11.86667 0.0286,2.96199 -1.06255,5.55163 -3.26874,7.7578 -2.96159,2.9616 -4.44729,3.31163 -14.05606,3.31163 -12.326184,0 -15.012676,0.7099 -15.012676,3.96703 0,3.79486 1.191139,4.12831 14.728578,4.12302 10.443088,-0.004 13.760338,-0.51153 17.248998,-2.6387 z m 54.12241,-1.06652 -0.42691,-3.71025 -16.86478,-0.38995 c -9.27563,-0.21447 -18.23082,-0.0511 -19.90044,0.363 -2.89026,0.71688 -4.13915,4.54505 -2.1362,6.548 0.49469,0.4947 9.642,0.89946 20.32735,0.89946 h 19.42789 z m 36.12197,1.78749 c 1.50983,-1.05752 5.98122,-8.93574 9.93643,-17.50713 5.97337,-12.945 6.90231,-15.93259 5.48496,-17.64039 -3.46331,-4.17303 -5.57793,-1.94397 -12.86178,13.55777 -6.35229,13.51918 -7.72968,15.55535 -10.26746,15.17831 -3.43226,-0.50995 -3.45766,-0.5497 -11.27029,-17.63755 -4.77727,-10.44885 -6.58713,-13.15453 -8.79921,-13.15453 -1.5317,0 -3.15063,0.9531 -3.59764,2.118 -1.11818,2.91389 11.14856,30.23165 15.25502,33.97262 3.88008,3.53473 11.87436,4.08664 16.11997,1.1129 z M -57.303281,461.3795 c 1.960619,-2.16645 2.21073,-3.50649 1.196172,-6.40862 -2.350775,-6.72427 -12.701189,-5.26055 -12.701189,1.79617 0,6.6926 7.060743,9.52332 11.505017,4.61245 z m 221.655841,-11.0899 0.42691,-3.71025 h -19.6951 c -20.57932,0 -22.57303,0.59531 -20.45742,6.10853 0.66783,1.74032 3.78659,2.00272 20.04479,1.68647 l 19.25391,-0.3745 z m -486.13254,-15.85289 v -3.37296 l -19.03089,-0.37316 c -15.66999,-0.30725 -19.33025,-0.0121 -20.72598,1.66931 -0.93228,1.12334 -1.33638,2.97718 -0.89799,4.11963 0.6771,1.76449 3.79717,2.02095 20.72598,1.70365 l 19.92888,-0.37352 z m 485.70563,0 v -3.37296 l -19.25391,-0.37451 c -16.2582,-0.31625 -19.37696,-0.0538 -20.04479,1.68648 -0.43497,1.13354 -0.43497,2.98843 0,4.12197 0.66783,1.74032 3.78659,2.00273 20.04479,1.68648 l 19.25391,-0.37451 z M -540.7711,396.75175 c 1.8724,-1.47284 6.19888,-9.10034 9.94871,-17.53937 3.64949,-8.21324 6.98792,-14.93316 7.41875,-14.93316 0.43082,0 4.02832,7.01752 7.99443,15.59447 3.96612,8.57696 8.46066,16.46968 9.98787,17.53937 4.39589,3.079 13.33321,2.49501 16.69277,-1.09076 4.35691,-4.65029 22.10481,-44.15773 21.63773,-48.16633 -0.32018,-2.74776 -1.23766,-3.52157 -4.55992,-3.84583 -4.14304,-0.40438 -4.19799,-0.32107 -14.23774,21.58692 -5.54327,12.09606 -10.82993,21.99286 -11.74815,21.99286 -0.91823,0 -6.0895,-9.71412 -11.49172,-21.58692 -9.71866,-21.35931 -9.86788,-21.58692 -14.15269,-21.58692 -4.28195,0 -4.44132,0.24191 -14.22159,21.58692 -5.4401,11.8728 -10.64558,21.58692 -11.56772,21.58692 -0.92214,0 -6.11325,-9.71412 -11.53579,-21.58692 l -9.85917,-21.58692 h -4.50424 c -3.57596,0 -4.58914,0.59554 -4.91624,2.88973 -0.57714,4.0479 18.057,45.02539 22.15338,48.71649 4.2844,3.86053 12.34013,4.06448 16.96133,0.42945 z m 138.66731,-0.004 c 1.80627,-3.37506 1.78475,-3.55539 -0.7235,-6.06364 -1.7804,-1.7804 -6.27749,-2.12015 -28.06299,-2.12015 -18.37886,0 -26.4149,0.47205 -27.56187,1.61902 -1.74518,1.74518 -2.18551,6.80904 -0.71956,8.27498 0.49469,0.4953 13.22311,0.90005 28.28535,0.90005 25.69481,0 27.47216,-0.16114 28.78257,-2.60966 z m 59.29655,0.64533 c 4.35153,-2.24967 8.21003,-9.41307 8.21003,-15.24152 0,-5.6439 -5.29182,-12.84948 -10.84018,-14.76048 -2.57148,-0.88567 -11.4843,-1.64458 -19.80626,-1.68648 -13.70719,-0.069 -15.2667,-0.33003 -16.57494,-2.77451 -1.02604,-1.91717 -1.02604,-3.47955 0,-5.39673 1.34143,-2.50649 2.82494,-2.69836 20.86343,-2.69836 15.85499,0 19.80844,-0.38915 21.53944,-2.12015 2.50825,-2.50825 2.52977,-2.68858 0.7235,-6.06364 -1.29283,-2.41567 -3.02576,-2.60967 -23.3105,-2.60967 -23.96564,0 -26.03901,0.56158 -29.94245,8.10999 -4.61821,8.93064 -0.2538,20.73028 8.82412,23.85694 2.57147,0.88567 11.48429,1.64459 19.80625,1.68648 13.53444,0.0681 15.27818,0.35148 16.52748,2.68582 1.80627,3.37506 1.78475,3.55539 -0.7235,6.06364 -1.7234,1.72341 -5.61867,2.12015 -20.81595,2.12015 -15.19729,0 -19.09255,0.39674 -20.81596,2.12014 -2.53514,2.53513 -2.69997,4.85545 -0.50112,7.0543 2.50575,2.50575 41.88469,2.21542 46.83661,-0.34533 z m 67.34479,-2.6114 c 0.25294,-2.2158 -0.32992,-4.39262 -1.34918,-5.03877 -0.98699,-0.6257 -10.14258,-1.14693 -20.34577,-1.15829 l -18.55126,-0.0201 v -19.65184 c 0,-10.96641 -0.61728,-20.80523 -1.39665,-22.26151 -1.56118,-2.91709 -6.64836,-3.46926 -9.12697,-0.99065 -2.30438,2.30438 -2.27769,49.80075 0.0293,52.10771 1.20489,1.20489 8.19155,1.54969 25.97176,1.28173 l 24.32347,-0.36658 0.44533,-3.90114 z m 66.86103,1.54008 c 1.08467,-1.72093 1.0847,-3.0012 1.1e-4,-4.72214 -1.32182,-2.09734 -4.46643,-2.40199 -28.15266,-2.72744 -18.52604,-0.25453 -27.23228,0.1047 -28.52439,1.1771 -1.94638,1.61536 -2.52511,6.84386 -0.93367,8.43529 0.50933,0.50934 13.34525,0.76231 28.52426,0.56216 24.57746,-0.32407 27.7611,-0.62234 29.08635,-2.72497 z m 39.90617,0.42599 c 0.76815,-1.43472 1.39664,-6.25087 1.39664,-10.70194 0,-6.99374 0.37852,-8.21301 2.78702,-8.97743 8.17219,-2.59377 20.804,-20.85784 19.89013,-28.75874 -0.33636,-2.90807 -1.20214,-3.67043 -4.53896,-3.99678 -3.78889,-0.37057 -4.39073,0.17396 -7.4205,6.71382 -1.81345,3.91439 -5.0297,9.10471 -7.1472,11.53402 -3.20965,3.68227 -4.7805,4.4098 -9.44427,4.37404 -7.28034,-0.0559 -9.31827,-1.76607 -15.41208,-12.93378 -4.08001,-7.47714 -5.76689,-9.36624 -8.6643,-9.70298 -2.48419,-0.28873 -4.03822,0.40458 -5.02037,2.23974 -1.1469,2.14301 -0.35783,4.78493 4.07333,13.63812 4.81312,9.61634 6.31683,11.43298 12.10574,14.62505 l 6.60994,3.6448 0.0194,8.83714 c 0.0108,5.04882 0.71349,9.53119 1.63846,10.45617 2.47861,2.47861 7.56579,1.92644 9.12697,-0.99065 z m 112.551713,-0.4254 c 1.084041,-1.72027 1.084216,-3.00186 6.07e-4,-4.72213 -1.287052,-2.04327 -4.14628,-2.41133 -21.242714,-2.73443 l -19.755483,-0.37337 -0.02064,-20.53896 c -0.01079,-11.29643 -0.53259,-21.34649 -1.158287,-22.33348 -0.64615,-1.01926 -2.822976,-1.60212 -5.038776,-1.34919 l -3.90116,0.44534 -0.36816,25.59292 c -0.20248,14.0761 -0.0645,26.38428 0.30667,27.35149 0.52768,1.3751 6.01911,1.67837 25.182467,1.39074 21.629726,-0.32466 24.682346,-0.64511 25.995478,-2.72893 z m 22.144143,1.41665 c 3.815582,-3.81559 0.336324,-11.87281 -5.126893,-11.87281 -5.463217,0 -8.942475,8.05722 -5.126893,11.87281 0.89046,0.89046 3.197562,1.61901 5.126893,1.61901 1.929331,0 4.236432,-0.72855 5.126893,-1.61901 z m 82.257581,-0.46916 c 6.38255,-2.66679 10.691312,-6.71023 13.975627,-13.11503 2.246496,-4.38095 2.554973,-7.4607 2.229766,-22.26151 l -0.37742,-17.17717 -3.901147,-0.44534 c -2.215803,-0.25293 -4.392628,0.32993 -5.038778,1.34919 -0.625697,0.98699 -1.149193,8.1694 -1.163332,15.96093 -0.02145,11.80459 -0.479648,14.91099 -2.748555,18.63245 -5.454447,8.94633 -20.727272,11.13823 -33.296834,4.77862 -5.833541,-2.9515 -7.420125,-3.27462 -9.1263416,-1.85858 -4.850985,4.02596 -1.6156998,10.16943 7.4191536,14.08823 6.373767,2.76455 25.457977,2.79329 32.027861,0.0482 z m 37.819645,0.46916 c 2.877819,-2.87782 1.959781,-9.07703 -1.583279,-10.69136 -6.144446,-2.79959 -12.153866,3.60749 -8.967624,9.56105 1.654489,3.09141 7.918715,3.76249 10.550903,1.13031 z m 51.538768,-16.92699 0.67459,-17.87143 12.36127,11.46281 c 6.79871,6.30454 13.37957,11.4628 14.62417,11.4628 1.24458,0 7.82463,-5.19227 14.62235,-11.53838 l 12.3595,-11.53837 0.67459,17.94699 c 0.65712,17.48225 0.75512,17.95841 3.78451,18.38785 6.51267,0.92325 7.00895,-0.97471 7.00895,-26.80477 0,-13.20535 -0.36852,-24.97009 -0.81894,-26.14385 -1.97171,-5.13818 -7.4378,-2.25868 -22.65708,11.93565 l -15.08572,14.06979 -15.09971,-14.16167 c -12.6816,-11.89378 -15.69765,-14.09293 -18.83353,-13.73249 l -3.73382,0.42919 -0.38391,24.28528 c -0.46917,29.67836 -0.29014,30.65996 5.48963,30.10134 l 4.33855,-0.41933 z m 91.02679,-1.35443 c 10.0181,-21.86334 11.84212,-24.62258 16.2771,-24.62258 4.25191,0 5.49938,1.93286 15.54214,24.08134 8.56366,18.88646 9.15038,19.78577 13.16965,20.18641 7.58578,0.75615 6.96761,-3.57973 -3.87966,-27.2127 -11.49758,-25.04983 -14.00993,-27.84851 -24.99936,-27.84851 -10.82569,0 -14.49752,4.07417 -25.45346,28.24241 -10.75182,23.71799 -11.17349,27.07406 -3.40177,27.07406 3.36007,0 4.29706,-1.46301 12.74536,-19.90043 z m 67.48189,16.86477 c 0.38817,-1.66961 0.8551,-9.91774 1.0376,-18.32919 l 0.33182,-15.29352 19.56314,18.31914 c 27.69192,25.93102 28.34184,25.71864 28.31218,-9.25154 -0.0108,-13.39401 -0.53259,-25.16027 -1.15829,-26.14726 -0.64615,-1.01926 -2.82298,-1.60212 -5.03878,-1.34919 l -3.90115,0.44534 -0.67459,18.21396 -0.67459,18.21396 -19.36565,-18.21396 c -16.39855,-15.42331 -20.01606,-18.21396 -23.61069,-18.21396 h -4.24504 l -0.36815,25.59292 c -0.20248,14.0761 -0.0697,26.37053 0.29495,27.32095 0.36471,0.9504 2.49199,1.72801 4.72729,1.72801 3.10614,0 4.23056,-0.71559 4.76995,-3.03566 z m 68.82854,-24.62257 v -26.98365 h -4.72214 -4.72214 l -0.36815,25.59292 c -0.20249,14.0761 -0.0549,26.4093 0.32801,27.40712 0.43731,1.1396 2.33008,1.65673 5.09029,1.39072 l 4.39413,-0.42347 z m 69.24915,23.87372 c 0.93546,-6.59879 -0.78171,-7.00894 -29.34363,-7.00894 -27.18948,0 -29.78666,0.47055 -29.78666,5.39673 0,5.06078 2.43787,5.46086 30.99021,5.0859 l 27.69922,-0.36377 z M 251.9598,387.61387 c 2.37901,-3.19295 2.09402,-9.8546 -0.54641,-12.77225 -2.24361,-2.47916 -9.25617,-3.31283 -12.06885,-1.43476 -5.17004,3.45214 -5.19645,12.24859 -0.0478,15.93399 3.46556,2.48066 10.21373,1.56035 12.66307,-1.72698 z m -655.13425,-12.07571 c 3.02559,-2.73812 3.12685,-5.00993 0.34716,-7.78961 -1.77456,-1.77455 -6.18743,-2.12014 -27.07234,-2.12014 -14.62008,0 -26.0328,0.57832 -27.56187,1.39664 -3.26613,1.74799 -3.41853,7.44243 -0.2486,9.28875 1.36406,0.79449 12.85597,1.39251 27.21471,1.41622 21.27139,0.0351 25.20925,-0.28081 27.32094,-2.19186 z m 193.28023,0.1128 c 1.16608,-1.16613 2.12014,-2.94416 2.12014,-3.95123 0,-1.00707 -0.95406,-2.78511 -2.12014,-3.95118 -1.77455,-1.77455 -6.18743,-2.12014 -27.07234,-2.12014 -14.62008,0 -26.0328,0.57832 -27.56187,1.39664 -3.26613,1.74799 -3.41853,7.44243 -0.2486,9.28875 1.36738,0.79642 12.96721,1.39246 27.56187,1.41622 21.14858,0.0344 25.5417,-0.29988 27.32094,-2.07912 z m 641.72126,0.7235 c 1.4808,-0.79257 2.60967,-2.81468 2.60967,-4.67473 0,-1.86005 -1.12887,-3.88217 -2.60967,-4.67468 -1.52907,-0.81832 -12.94179,-1.39664 -27.56187,-1.39664 -20.88491,0 -25.29779,0.34559 -27.07234,2.12014 -1.16609,1.16607 -2.12015,2.94411 -2.12015,3.95118 0,1.00707 0.95406,2.7851 2.12015,3.95117 1.77455,1.77455 6.18743,2.12015 27.07234,2.12015 14.62008,0 26.0328,-0.57833 27.56187,-1.39665 z M -402.82729,352.7148 c 1.16608,-1.16607 2.12014,-2.91312 2.12014,-3.88234 0,-4.33456 -3.58596,-4.84965 -31.20372,-4.48213 l -27.48571,0.36575 -0.44086,3.10992 c -0.9332,6.58289 0.8201,7.00895 28.84253,7.00895 21.88062,0 26.38664,-0.33916 28.16762,-2.12015 z m 192.93307,0 c 1.16608,-1.16607 2.11085,-2.83568 2.09949,-3.71025 -0.0619,-4.76754 -1.74624,-5.02511 -30.43294,-4.65387 l -28.23584,0.3654 -0.44086,3.10992 c -0.9332,6.58289 0.8201,7.00895 28.84253,7.00895 21.88062,0 26.38664,-0.33916 28.16762,-2.12015 z m 642.92011,0.17063 c 0.88987,-1.07222 1.41956,-3.34896 1.17708,-5.05943 l -0.44086,-3.10992 -28.6377,-0.36404 -28.63772,-0.36403 -0.90595,3.60961 c -1.64434,6.55157 1.19272,7.23733 29.94121,7.23733 20.92559,0 26.19603,-0.37358 27.50394,-1.94952 z m -666.4966,-54.84331 c 9.83041,-5.525 10.09847,-6.73428 10.85563,-48.97339 0.60617,-33.81612 0.91213,-37.7821 3.0169,-39.10756 1.84416,-1.16134 2.8778,-0.90514 4.86004,1.20459 1.38475,1.47381 8.71026,19.0722 16.2789,39.10756 7.56866,20.03536 15.19336,38.60978 16.94379,41.27649 4.6424,7.07254 11.17336,9.71808 22.42164,9.08249 6.94497,-0.39242 10.25459,-1.28658 13.41744,-3.62496 4.15135,-3.06923 4.26176,-3.07723 9.83937,-0.71325 4.63276,1.96353 10.76483,2.48928 34.31103,2.9418 l 28.670125,0.55098 V 289.5338 279.28074 h -24.328617 c -25.874998,0 -30.507588,-0.86905 -35.709998,-6.69897 -2.5443,-2.85119 -2.72196,-5.24983 -3.11164,-42.01086 l -0.41329,-38.98702 h -10.04288 -10.04288 v 42.58794 c 0,42.14203 -0.54043,47.80727 -4.5605,47.80727 -3.50498,0 -6.01879,-5.29274 -19.66252,-41.39877 -7.62263,-20.17215 -15.36845,-38.8975 -17.21292,-41.61188 -4.22649,-6.21984 -10.18949,-8.73374 -20.7165,-8.73374 -10.26945,0 -16.44799,2.79301 -20.46371,9.25061 -2.93693,4.72284 -3.08341,6.39295 -3.73152,42.54831 -0.60543,33.7743 -0.91405,37.78331 -3.01035,39.10342 -1.77458,1.11752 -2.82176,0.98489 -4.35864,-0.55199 -1.11259,-1.11259 -9.24875,-21.44122 -18.08036,-45.17474 l -16.05747,-43.15184 -10.93964,-0.39165 -10.93965,-0.39166 1.43629,3.76461 c 0.78996,2.07054 8.40472,22.51955 16.9217,45.44226 16.79296,45.19677 18.87203,49.96796 23.6472,54.26733 5.3851,4.84853 8.263,5.8348 17.14969,5.87726 6.27203,0.0299 9.94087,-0.72047 13.61334,-2.78451 z m 317.546004,1.30776 c 4.477262,-2.30593 9.129715,-6.86712 10.837456,-10.62486 0.964274,-2.12181 1.786978,-17.08183 2.21792,-40.33063 0.61404,-33.12687 0.927159,-37.11016 3.02081,-38.42882 1.78925,-1.12696 2.84011,-0.96681 4.49141,0.6845 1.18561,1.18561 9.32207,21.51424 18.08101,45.17474 l 15.92536,43.01907 10.93782,0.39164 10.93781,0.39163 -3.88633,-10.51049 C 131.5811,221.34929 124.72389,203.66839 121.85954,199.441 c -4.47673,-6.60703 -10.37635,-9.20629 -20.89582,-9.20629 -10.318137,0 -16.794428,3.00434 -20.687372,9.59686 -2.474428,4.19032 -2.754356,7.69265 -3.372956,42.20175 -0.606174,33.81568 -0.912142,37.78183 -3.016907,39.10756 -1.844953,1.16208 -2.870911,0.90636 -4.831637,-1.20428 -1.369124,-1.4738 -8.420719,-18.46507 -15.670213,-37.75837 -7.249508,-19.29331 -14.685486,-37.6971 -16.524421,-40.89732 -4.780882,-8.31998 -9.92499,-11.03502 -20.91949,-11.04116 -10.6451564,-0.005 -14.4836476,1.2397 -19.0734714,6.18962 -5.24527,5.65678 -6.3115288,12.92794 -6.3115288,43.04034 0,31.8273 -0.5631348,34.0763 -9.4197478,37.62002 -4.227973,1.6917 -10.235356,2.19101 -26.360891,2.19101 h -20.885018 v 10.24524 10.24525 l 25.297168,-0.49017 c 22.858063,-0.44293 25.945977,-0.78667 32.0262691,-3.56524 8.20914031,-3.7514 12.1971748,-7.34322 16.0010055,-14.41131 2.6983781,-5.01398 2.9344854,-7.66273 3.3291204,-37.3472 0.448819,-33.76025 0.908095,-36.09161 6.745022,-34.23903 1.935145,0.61418 6.221241,10.41669 17.205393,39.34954 8.045538,21.19238 16.043694,40.45012 17.773683,42.795 4.664001,6.3217 10.485602,8.88288 20.339517,8.94828 4.6866,0.0312 9.847223,-0.62644 11.468049,-1.46122 z"
       id="path1663"
       transform="scale(0.26458333)" />
  </g>
  <g
     inkscape:groupmode="layer"
     id="g1667"
     inkscape:label="WLJM"
     style="display:inline"
     transform="translate(80.723161,-50.333738)">
    <g
       id="g5010"
       clip-path="url(#clipPath5012)"
       style="display:inline" />
    <path
       style="display:inline;fill:#ffffff;fill-opacity:1;fill-rule:nonzero;stroke:none"
       d="m 570.37109,216.3125 c -1.58593,-4.57031 -3.76562,-8.19141 -6.57422,-10.82422 -2.79687,-2.64844 -6.88671,-3.97656 -12.25,-3.97656 -5.92968,0 -10.37109,1.60156 -13.32812,4.80078 -2.95703,3.19922 -4.44531,7.39844 -4.44531,12.60156 v 47.26172 c 0,1.33984 -0.3711,2.42188 -1.11328,3.24609 -0.76172,0.83985 -1.73047,1.2461 -2.91016,1.2461 -2.21484,0 -3.71484,-1.09766 -4.49219,-3.3125 L 505.83984,216.3125 c -1.58593,-4.57031 -3.78125,-8.19141 -6.57812,-10.82422 -2.8125,-2.64844 -6.88281,-3.97656 -12.26172,-3.97656 -3.21875,0 -5.99609,0.46875 -8.33984,1.42187 -1.97266,0.79297 -3.63672,1.92578 -4.97657,3.37891 -2.5039,2.69922 -3.9414,6.12109 -4.32812,10.24219 -0.082,0.76172 -0.11328,1.55078 -0.11328,2.35937 v 38.26172 c -0.11328,1.16406 -0.33985,2.29297 -0.66407,3.375 -0.51562,1.69922 -1.40625,3.15234 -2.66406,4.37891 -1.26172,1.23047 -2.9414,2.18359 -5.02734,2.89453 -2.10156,0.71094 -4.71485,1.0664 -7.86719,1.0664 h -26.30469 v 13.97657 h 27.12891 c 5.28516,0 9.80469,-0.69532 13.55469,-2.07032 0.6289,-0.24218 1.26172,-0.48437 1.84375,-0.75781 2.92578,-1.29297 5.36328,-2.95703 7.33593,-4.99219 2.375,-2.4414 4.10157,-5.34765 5.19922,-8.69531 0.82422,-2.47265 1.32813,-5.10547 1.55469,-7.94922 0.0781,-1.01562 0.10938,-2.0664 0.10938,-3.13281 v -36.87109 c 0.16406,-0.85547 0.5039,-1.56641 1.01953,-2.13282 0.74609,-0.83984 1.71484,-1.24218 2.89062,-1.24218 1.03516,0 1.92578,0.30468 2.66797,0.93359 0.75781,0.63281 1.32422,1.47266 1.71094,2.48828 l 19.42187,51.04297 c 1.58594,4.57031 3.79688,8.19141 6.64063,10.82422 2.84375,2.64844 6.94922,3.97656 12.3125,3.97656 5.92969,0 10.33984,-1.60156 13.26562,-4.80078 2.92578,-3.19922 4.37891,-7.43359 4.37891,-12.73047 V 219.625 c 0,-1.42188 0.40234,-2.53516 1.17969,-3.35938 0.79297,-0.83984 1.77734,-1.24218 2.97265,-1.24218 1.09766,0 2.00391,0.30468 2.71485,0.93359 0.71093,0.63281 1.26172,1.47266 1.66406,2.48828 l 23.91406,64.42188 H 595.125 Z m 0,0"
       id="path5025"
       transform="matrix(0.35277777,0,0,0.35277777,-167.77659,-20.755117)" />
    <g
       inkscape:label="Clip"
       id="g5008"
       style="display:inline">
      <path
         style="display:inline;fill:#ffffff;fill-opacity:1;fill-rule:nonzero;stroke:none;stroke-width:0.352778"
         d="m -33.202892,73.728692 c -0.738628,-0.2508 -1.331185,-0.591178 -1.776292,-1.023881 -0.445106,-0.431327 -0.759297,-0.945335 -0.939821,-1.546158 -0.180523,-0.598068 -0.271473,-1.231967 -0.271473,-1.900315 V 50.835344 h -5.095984 v 22.30906 c 0,0.472669 -0.132292,0.855765 -0.396875,1.147907 -0.264583,0.292146 -0.606337,0.439593 -1.023885,0.439593 -0.752408,0 -1.267795,-0.389982 -1.546158,-1.169952 l -6.850228,-18.005446 c -0.558105,-1.615063 -1.336696,-2.889748 -2.339908,-3.822679 -1.003211,-0.932931 -2.45153,-1.400087 -4.344955,-1.400087 -2.089104,0 -3.649045,0.564995 -4.67844,1.692229 -1.030771,1.128614 -1.546158,2.611385 -1.546158,4.449685 v 16.66875 c 0,0.472669 -0.139182,0.855765 -0.417544,1.147907 -0.278363,0.292146 -0.62701,0.439593 -1.044554,0.439593 -0.389985,0 -0.70969,-0.104729 -0.960494,-0.314191 -0.2508,-0.208083 -0.446483,-0.494715 -0.584288,-0.855761 l -8.439104,-22.726608 h -5.264108 l 8.73125,23.477636 c 0.556729,1.616442 1.32981,2.889747 2.317863,3.822679 0.989429,0.932931 2.430857,1.400087 4.324283,1.400087 2.089104,0 3.655934,-0.564995 4.700488,-1.692229 1.043175,-1.127238 1.565452,-2.625165 1.565452,-4.491027 V 56.725082 c 0,-0.500228 0.132291,-0.897103 0.396875,-1.189249 0.264583,-0.293522 0.606336,-0.438217 1.023881,-0.438217 0.389985,0 0.71658,0.110243 0.981163,0.333488 0.264583,0.223241 0.467155,0.515383 0.606337,0.87781 l 6.851607,18.004066 c 0.556726,1.616442 1.329807,2.889747 2.317859,3.822679 0.989433,0.932931 2.430858,1.400087 4.324283,1.400087 2.089108,0 3.654559,-0.564995 4.69911,-1.692229 0.15434,-0.165365 0.292145,-0.341754 0.423058,-0.523657 0.581533,0.383096 1.229212,0.715204 1.958192,0.983919 1.322916,0.486448 2.917309,0.730362 4.784548,0.730362 h 11.236525 v -4.929243 h -10.94438 c -1.114834,0 -2.040875,-0.125402 -2.778125,-0.376206"
         id="path1603-9" />
    </g>
  </g>
</svg>
